<svg width="20" height="22" viewBox="0 0 20 22" fill="none" xmlns="http://www.w3.org/2000/svg">
<path d="M10.9621 1.9965V7.10475C10.9621 8.73701 9.60722 10.0649 7.94077 10.0649H7.75389V19.4771C7.75389 20.3261 6.93439 21.0147 5.9236 21.0147C4.91251 21.0147 4.09302 20.3266 4.09302 19.4771V10.0649H3.90554C2.23968 10.0649 0.884766 8.73701 0.884766 7.10475V1.9965C0.884766 1.43083 1.43031 0.972064 2.10388 0.972064C2.77803 0.972064 3.32402 1.43083 3.32402 1.9965V7.10475C3.32402 7.65253 3.67373 8.01588 3.90554 8.01588H4.70287V1.99724C4.70287 1.43157 5.24915 0.972804 5.92257 0.972804C6.5954 0.972804 7.14183 1.43157 7.14183 1.99724V8.01588H7.93901C8.16995 8.01588 8.52053 7.65253 8.52053 7.10475V1.9965C8.52053 1.43083 9.06681 0.972064 9.74067 0.972064C10.4144 0.972064 10.9621 1.43083 10.9621 1.9965ZM19.0699 2.94375C18.9444 1.77753 17.7909 0.859375 16.3686 0.859375C14.863 0.859375 13.6436 1.88381 13.6436 3.14817C13.6372 3.20119 13.6251 3.2531 13.6251 3.30771V19.4745C13.6251 20.3239 14.4436 21.0122 15.4551 21.0122C16.4665 21.0122 17.286 20.3239 17.286 19.4745V14.3513C18.2966 14.3513 19.1153 13.6638 19.1153 12.8156V3.26962C19.1129 3.15853 19.0968 3.04942 19.0699 2.94375Z" fill="#173E36" fill-opacity="0.8"/>
</svg>
