<svg width="32" height="27" viewBox="0 0 32 27" fill="none" xmlns="http://www.w3.org/2000/svg">
<path d="M30.6606 9.67228L21.1622 8.51298L16.9161 1.28385C16.8001 1.08592 16.6093 0.925692 16.3737 0.828298C15.7826 0.583243 15.0643 0.787456 14.7688 1.28385L10.5227 8.51298L1.02423 9.67228C0.762363 9.7037 0.522937 9.80737 0.339627 9.96446C0.118015 10.1558 -0.00410356 10.4131 0.000105295 10.68C0.00431415 10.9468 0.134506 11.2014 0.362073 11.3877L7.23434 17.0145L5.61073 24.96C5.57266 25.1448 5.59701 25.3349 5.68103 25.5087C5.76505 25.6825 5.90538 25.833 6.0861 25.9432C6.26682 26.0535 6.4807 26.119 6.70348 26.1323C6.92627 26.1457 7.14905 26.1063 7.34657 26.0187L15.8424 22.2675L24.3383 26.0187C24.5702 26.1224 24.8396 26.157 25.0977 26.1193C25.7487 26.025 26.1864 25.5066 26.0741 24.96L24.4505 17.0145L31.3228 11.3877C31.5099 11.2337 31.6333 11.0327 31.6707 10.8127C31.7717 10.2629 31.3153 9.75397 30.6606 9.67228Z" fill="#FFAC33"/>
</svg>
