<svg width="32" height="27" viewBox="0 0 32 27" fill="none" xmlns="http://www.w3.org/2000/svg">
<path d="M20.7795 8.99359L20.8906 9.18276L21.1084 9.20934L30.6057 10.3685C30.6059 10.3685 30.6061 10.3686 30.6064 10.3686C31.0915 10.4294 31.2751 10.7659 31.2342 10.9884L31.2342 10.9884L31.2332 10.9942C31.2159 11.0963 31.1559 11.206 31.0413 11.3005C31.0411 11.3006 31.041 11.3007 31.0408 11.3009L24.1694 16.927L23.9621 17.0967L24.0158 17.3592L25.6394 25.3047L25.6394 25.3051C25.6857 25.5304 25.5106 25.8669 25.0341 25.9359L25.0336 25.936C24.8544 25.9622 24.6705 25.937 24.5194 25.8694L24.5176 25.8686L16.0217 22.1174L15.8424 22.0382L15.6632 22.1174L7.16732 25.8686L7.16669 25.8689C7.03619 25.9268 6.88442 25.9544 6.73001 25.9452C6.57556 25.9359 6.4326 25.8906 6.31718 25.8202C6.20199 25.75 6.1239 25.661 6.08056 25.5714C6.03794 25.4832 6.02746 25.3923 6.04538 25.3054L6.04552 25.3047L7.66912 17.3592L7.72276 17.0967L7.51547 16.927L0.643208 11.3002L0.643177 11.3001C0.505047 11.1871 0.445745 11.0508 0.443821 10.9288C0.441905 10.8073 0.496421 10.6715 0.629031 10.5567C0.741381 10.4607 0.896981 10.3904 1.07709 10.3688L1.078 10.3686L10.5765 9.20934L10.7942 9.18276L10.9053 8.99359L15.1501 1.76673C15.1502 1.76643 15.1504 1.76613 15.1506 1.76582C15.3168 1.48804 15.7844 1.32026 16.2037 1.49409L16.2042 1.49429C16.3609 1.55905 16.4717 1.659 16.5332 1.76405L16.5335 1.76446L20.7795 8.99359Z" stroke="#FFCC4D" stroke-width="0.887542"/>
</svg>
