<svg width="33" height="36" viewBox="0 0 33 36" fill="none" xmlns="http://www.w3.org/2000/svg">
    <path d="M28.2685 17.0132C28.0858 16.8479 28.0598 16.5696 28.225 16.3869C28.3903 16.1956 28.6686 16.1782 28.8599 16.3434C28.9991 16.4652 32.2869 19.3964 31.8433 26.9462C32.0434 27.1288 32.2261 27.4941 32.3304 27.9377C32.487 28.6162 32.3826 29.225 32.0956 29.2859C31.8259 29.3468 31.478 28.8858 31.3128 28.2422C31.0083 28.8597 30.5561 29.2598 30.2951 29.138C30.0516 29.0163 30.0603 28.4683 30.3212 27.8768C29.7646 28.103 29.2514 28.103 29.1383 27.8681C29.0078 27.6072 29.4166 27.1462 30.0516 26.8418C30.3821 26.6852 30.7039 26.5983 30.9561 26.5896C31.278 19.7356 28.3033 17.0393 28.2685 17.0132Z"
          fill="#9D7B57"/>
    <path d="M22.0415 34.5631C21.9546 34.2935 21.6675 34.1369 21.3979 34.2239L20.6499 34.45V30.7795C20.6499 30.536 20.4498 30.3359 20.2063 30.3359C19.9628 30.3359 19.7627 30.536 19.7627 30.7795V35.1285C19.7627 35.3459 19.9193 35.5286 20.1367 35.5721C20.2411 35.6069 20.3542 35.6156 20.4672 35.5808L21.711 35.1981C21.972 35.1285 22.1198 34.8414 22.0415 34.5631Z"
          fill="#C59D72"/>
    <path d="M14.047 35.2068C14.0557 35.172 14.0644 35.1372 14.0644 35.0937C14.0644 35.0763 14.0644 35.0589 14.0557 35.0328V30.7795C14.0557 30.536 13.8556 30.3359 13.6121 30.3359C13.3686 30.3359 13.1685 30.536 13.1685 30.7795V34.5805H12.2552C11.9682 34.5805 11.7421 34.8067 11.7421 35.0937C11.7421 35.3807 11.9682 35.6069 12.2552 35.6069H13.5512C13.6643 35.6069 13.7687 35.5721 13.847 35.5112C13.9513 35.4503 14.0296 35.3372 14.047 35.2068Z"
          fill="#C59D72"/>
    <path d="M31.7821 8.46306C31.7821 3.79228 27.9985 0 23.3191 0C20.1095 0 17.3262 1.78307 15.8911 4.40983C14.4559 1.78307 11.6639 0 8.46307 0C3.79229 0 0 3.78359 0 8.46306C0 11.3942 1.49605 13.9862 3.7662 15.4997V28.4856C3.7662 29.9382 4.94041 31.1124 6.39296 31.1124H25.3979C26.8504 31.1124 28.0246 29.9382 28.0246 28.4856V15.4997C30.2861 13.9775 31.7821 11.3942 31.7821 8.46306Z"
          fill="#C59D72"/>
    <path d="M33 8.46306C33 3.79228 29.2164 0 24.537 0C21.3274 0 18.5441 1.78307 17.109 4.40983C15.6738 1.78307 12.8818 0 9.68096 0C5.01019 0 1.2179 3.78359 1.2179 8.46306C1.2179 11.3942 2.71395 13.9862 4.9841 15.4997V28.4856C4.9841 29.9382 6.15831 31.1124 7.61086 31.1124H26.6158C28.0683 31.1124 29.2425 29.9382 29.2425 28.4856V15.4997C31.504 13.9775 33 11.3942 33 8.46306Z"
          fill="#EDBC82"/>
    <path d="M30.2688 8.8885C30.2688 5.33106 27.2245 2.44336 23.4757 2.44336C20.301 2.44336 17.6394 4.51346 16.8914 7.30548C16.1521 4.51346 13.4818 2.44336 10.3071 2.44336C6.5583 2.44336 3.51404 5.33106 3.51404 8.8885C3.51404 11.2717 4.8796 13.3505 6.90621 14.4639V27.215C6.90621 28.4327 7.89778 29.4242 9.11549 29.4242H25.0761C26.2938 29.4242 27.2854 28.4327 27.2854 27.215V14.2551H27.2332C29.0685 13.0983 30.2688 11.1239 30.2688 8.8885Z"
          fill="#F9ECBA"/>
    <path d="M21.0758 8.14606C21.9542 7.95471 22.8588 8.36351 23.2589 9.18111C23.4503 9.56382 24.0591 9.28549 23.8678 8.90278C23.3372 7.83294 22.1369 7.23278 20.9627 7.48502C20.5452 7.572 20.6496 8.23304 21.0758 8.14606Z"
          fill="#5A3A1C"/>
    <path d="M12.804 8.14606C11.9255 7.95471 11.0209 8.36351 10.6208 9.18111C10.4295 9.56382 9.82062 9.28549 10.012 8.90278C10.5425 7.83294 11.7428 7.23278 12.9171 7.48502C13.3259 7.572 13.2215 8.23304 12.804 8.14606Z"
          fill="#5A3A1C"/>
    <path d="M26.3381 14.9609C26.1902 14.9957 26.025 15.1001 25.9032 15.2393C24.6246 16.57 23.807 18.3357 23.6243 20.1797C23.52 21.2234 23.6156 22.2933 23.4417 23.3283C23.259 24.3634 22.7371 25.4245 21.7717 25.8594C21.1193 26.1551 20.3626 26.1116 19.6581 25.9986C19.1362 25.9116 18.5969 25.7811 18.0751 25.8855C17.5532 25.9899 17.0487 26.4161 17.0661 26.9466C17.0922 27.686 17.9968 28.0165 18.7274 28.1557C21.0237 28.5905 23.52 28.9906 25.5901 27.9295C25.8075 27.8164 26.0163 27.686 26.1467 27.4859C26.2946 27.2598 26.3207 26.9727 26.3381 26.7031C26.3381 26.677 26.3381 26.6596 26.3468 26.6335V14.9609H26.3381Z"
          fill="#F8F1D1"/>
    <path d="M26.9726 10.2474C27.0956 10.2474 27.0956 10.0628 26.9726 10.0628C26.8495 10.054 26.8495 10.2474 26.9726 10.2474Z"
          fill="#C59D72"/>
    <path d="M24.0148 13.3579C24.1206 13.3579 24.1206 13.1992 24.0148 13.1992C23.909 13.1992 23.909 13.3579 24.0148 13.3579Z"
          fill="#C59D72"/>
    <path d="M26.6154 12.147C26.7212 12.147 26.7212 11.9883 26.6154 11.9883C26.5096 11.9883 26.5096 12.147 26.6154 12.147Z"
          fill="#C59D72"/>
    <path d="M27.5969 8.71792C27.8839 8.71792 27.8839 8.26562 27.5969 8.26562C27.3098 8.26562 27.3098 8.71792 27.5969 8.71792Z"
          fill="#C59D72"/>
    <path d="M25.7194 9.6266C25.9207 9.6266 25.9207 9.32031 25.7194 9.32031C25.5182 9.32031 25.5182 9.6266 25.7194 9.6266Z"
          fill="#C59D72"/>
    <path d="M8.70401 20.1424C9.01713 20.1424 9.01713 19.6641 8.70401 19.6641C8.39088 19.6641 8.39958 20.1424 8.70401 20.1424Z"
          fill="#C59D72"/>
    <path d="M9.28884 21.4835C9.42071 21.4835 9.42071 21.2813 9.28884 21.2813C9.16576 21.2812 9.16576 21.4835 9.28884 21.4835Z"
          fill="#C59D72"/>
    <path d="M8.17485 22.333C8.47928 22.333 8.47928 21.8633 8.17485 21.8633C7.87043 21.8633 7.87043 22.333 8.17485 22.333Z"
          fill="#C59D72"/>
    <path d="M9.64596 23.1787C9.8895 23.1787 9.8895 22.8047 9.64596 22.8047C9.40242 22.8047 9.41112 23.1787 9.64596 23.1787Z"
          fill="#C59D72"/>
    <path d="M8.35164 24.4498C8.55292 24.4498 8.55292 24.1348 8.35164 24.1348C8.15036 24.1348 8.15036 24.4498 8.35164 24.4498Z"
          fill="#C59D72"/>
    <path d="M9.64604 25.6864C9.76067 25.6864 9.76067 25.5101 9.64604 25.5101C9.5314 25.5013 9.5314 25.6864 9.64604 25.6864Z"
          fill="#C59D72"/>
    <path d="M11.7076 23.1425C11.9511 23.1425 11.9511 22.7598 11.7076 22.7598C11.464 22.7598 11.464 23.1425 11.7076 23.1425Z"
          fill="#C59D72"/>
    <path d="M5.93215 7.0733C6.06403 7.0733 6.06403 6.87109 5.93215 6.87109C5.80907 6.87109 5.80907 7.0733 5.93215 7.0733Z"
          fill="#C59D72"/>
    <path d="M7.32473 9.10793C7.5435 9.10793 7.5435 8.77539 7.32473 8.77539C7.10595 8.77539 7.10595 9.10793 7.32473 9.10793Z"
          fill="#C59D72"/>
    <path d="M4.99315 8.789C5.36716 8.789 5.36716 8.21494 4.99315 8.21494C4.61914 8.20624 4.61914 8.789 4.99315 8.789Z"
          fill="#C59D72"/>
    <path d="M6.20113 8.13273C6.25316 8.13273 6.25316 8.05469 6.20113 8.05469C6.1491 8.05469 6.1491 8.13273 6.20113 8.13273Z"
          fill="#C59D72"/>
    <path d="M6.20139 9.45391C6.45363 9.45391 6.45363 9.0625 6.20139 9.0625C5.94915 9.0625 5.94915 9.45391 6.20139 9.45391Z"
          fill="#C59D72"/>
    <path d="M4.55789 17.3792C4.73185 17.2053 4.73185 16.9269 4.55789 16.7443C4.38393 16.5703 4.09692 16.5616 3.92296 16.7356C3.79249 16.866 0.704732 20.006 1.63541 27.5123C1.45275 27.7036 1.28748 28.0863 1.2179 28.5386C1.10483 29.2258 1.25271 29.8259 1.53974 29.8694C1.81808 29.9129 2.12248 29.4345 2.25295 28.7822C2.59217 29.3823 3.07056 29.7476 3.3228 29.6085C3.56634 29.4693 3.51416 28.9213 3.21843 28.3473C3.79249 28.5299 4.29698 28.5038 4.39265 28.2603C4.50573 27.9907 4.06211 27.5558 3.41847 27.2948C3.07925 27.1557 2.74873 27.0948 2.49649 27.1035C1.73977 20.293 4.5318 17.4053 4.55789 17.3792Z"
          fill="#9D7B57"/>
    <path d="M12.6387 9.68189C11.7864 9.69928 11.1166 10.6387 11.1427 11.7781C11.1688 12.9175 11.882 13.8221 12.7344 13.8047C13.5868 13.7873 14.2566 12.8479 14.2305 11.7085C14.2044 10.5691 13.4911 9.66449 12.6387 9.68189ZM11.8907 12.2565C11.5863 12.2565 11.5863 11.7781 11.8907 11.7781C12.1952 11.7868 12.1952 12.2565 11.8907 12.2565ZM13.439 11.7868C12.7866 11.8825 12.6039 10.6213 13.2563 10.5256C13.8999 10.4299 14.0913 11.6824 13.439 11.7868Z"
          fill="#5A3A1C"/>
    <path d="M21.7192 9.88154C20.8755 9.79456 20.1014 10.5861 19.9884 11.6385C19.884 12.6997 20.4841 13.6216 21.3278 13.7086C22.1715 13.7956 22.9456 13.0041 23.0587 11.9516C23.1718 10.8905 22.5716 9.95982 21.7192 9.88154ZM21.5018 11.1949C21.4409 11.4037 21.3191 11.6037 21.1452 11.7342C21.0843 11.7777 21.0147 11.8038 20.9364 11.8125C20.8842 11.8299 20.8233 11.8386 20.7625 11.8299C20.6407 11.8212 20.5363 11.769 20.458 11.6646C20.3798 11.5602 20.3537 11.4472 20.345 11.3167C20.3189 11.0644 20.4232 10.8209 20.5972 10.6383C20.7625 10.4643 21.0495 10.3512 21.2756 10.4991C21.3974 10.5774 21.4844 10.7078 21.5279 10.8557C21.5453 10.9688 21.5366 11.0905 21.5018 11.1949ZM22.302 12.5692C21.9976 12.5692 21.9976 12.0908 22.302 12.0908C22.6064 12.0908 22.6064 12.5692 22.302 12.5692Z"
          fill="#5A3A1C"/>
    <path d="M19.4938 13.3882C19.3285 13.2491 18.9545 13.3534 18.7631 13.3621C18.3108 13.3795 17.8586 13.3969 17.415 13.4056C16.6148 13.423 15.7711 13.5274 14.9795 13.423C14.8404 13.4056 14.7534 13.5013 14.7273 13.6144C14.7099 13.6318 14.6925 13.6405 14.6838 13.6579C14.6403 13.8666 14.6229 14.0841 14.6229 14.3015C14.6577 14.4146 14.6577 14.5885 14.649 14.7538C14.6664 14.8843 14.6838 15.0234 14.7012 15.1539C14.7534 15.3366 14.8317 15.5105 14.9274 15.6758C15.1709 16.0933 15.571 16.4325 16.0146 16.6065C17.0236 16.9979 18.7197 16.8326 19.372 15.8758C19.7112 15.3974 19.8852 13.7274 19.4938 13.3882Z"
          fill="#FF5A72"/>
    <path d="M17.6833 15.0916C16.7092 15.0133 15.7524 15.1785 14.8391 15.4917C14.8652 15.5525 14.9 15.6134 14.9261 15.6743C15.1696 16.0918 15.5697 16.431 16.0133 16.605C17.0223 16.9964 18.7184 16.8311 19.3707 15.8744C19.4316 15.7874 19.4838 15.6656 19.5273 15.5264C18.9358 15.309 18.3183 15.1437 17.6833 15.0916Z"
          fill="#FF929D"/>
    <path d="M18.6759 13.4217C18.154 13.326 18.0148 13.4826 17.4843 13.4739C16.9015 13.4652 16.5536 13.4652 15.9708 13.4043C15.6577 13.3782 15.5446 13.6826 15.823 13.8131C16.5362 14.1349 17.9887 14.1001 18.6585 13.8305C18.8237 13.7609 18.8672 13.4652 18.6759 13.4217Z"
          fill="white"/>
    <path d="M14.8135 13.6299C16.3182 13.6647 17.823 13.6212 19.3277 13.6212C19.406 13.6212 19.493 13.6212 19.58 13.6212C19.6148 13.6212 19.6148 13.6299 19.6061 13.6212C19.5974 13.6038 19.5017 13.5342 19.493 13.5516C19.4843 13.569 19.5017 13.656 19.5017 13.6821C19.5104 14.0996 19.493 14.5432 19.4234 14.9607C19.3364 15.4478 19.119 15.9088 18.7189 16.2132C18.2492 16.5698 17.6055 16.6916 17.0228 16.6481C16.3443 16.5959 15.6137 16.2741 15.2571 15.6739C14.8657 15.0129 14.9005 14.2214 14.9353 13.4821C14.944 13.282 14.6308 13.282 14.6221 13.4821C14.5874 14.1866 14.57 14.9172 14.857 15.5782C15.1266 16.1958 15.6572 16.6046 16.2835 16.8134C17.4055 17.1961 18.9015 16.909 19.4843 15.787C19.7191 15.3347 19.78 14.8302 19.8061 14.3258C19.8148 14.0909 19.8322 13.8648 19.8235 13.6299C19.8148 13.4995 19.8061 13.3516 19.6582 13.3168C19.4756 13.2733 19.2581 13.3081 19.0755 13.3081C18.6667 13.3081 18.2666 13.3168 17.8578 13.3168C16.8488 13.3255 15.8312 13.3429 14.8135 13.3168C14.6048 13.3081 14.6048 13.6299 14.8135 13.6299Z"
          fill="#5A3A1C"/>
</svg>
