<svg width="35" height="43" viewBox="0 0 35 43" fill="none" xmlns="http://www.w3.org/2000/svg">
    <path d="M19.3555 41.8692L20.6087 41.6929C19.7471 37.9528 20.5696 32.7243 20.6087 32.4894C20.6479 32.2446 20.8731 32.0879 21.1179 32.1271C21.3626 32.1662 21.5193 32.3914 21.4801 32.6362C21.4703 32.695 20.5696 38.4129 21.5878 41.9769C21.6074 42.0258 21.627 42.0748 21.6368 42.1237C21.6368 42.1335 21.6368 42.1433 21.6368 42.1531C21.6564 42.2706 21.627 42.3881 21.5683 42.4762C21.4801 42.6231 21.3333 42.7308 21.157 42.7602L19.5219 42.9951C19.2086 43.0343 18.9247 42.8189 18.8757 42.5154C18.8268 42.1923 19.0422 41.9083 19.3555 41.8692Z"
          fill="#4C9B23"/>
    <path d="M16.1632 41.6632L14.812 41.4967L15.3897 33.2331C15.4092 32.9883 15.2232 32.7827 14.9784 32.7631C14.7337 32.7436 14.528 32.9296 14.5085 33.1744L13.8916 41.9373C13.8916 41.9471 13.8916 41.9569 13.8818 41.9667C13.8818 41.9961 13.8818 42.0157 13.8818 42.045V42.0548V42.0646C13.8818 42.0744 13.8818 42.0842 13.8818 42.0842C13.8818 42.2115 13.9308 42.3192 14.0189 42.4073C14.107 42.5052 14.2343 42.5836 14.3812 42.6031L16.0261 42.799C16.3394 42.8381 16.6233 42.6129 16.6625 42.2996C16.7017 41.9863 16.4765 41.7024 16.1632 41.6632Z"
          fill="#4C9B23"/>
    <path d="M10.8571 18.8127C12.0222 20.9863 12.4139 23.483 12.5999 25.9406C12.7468 27.8988 12.7663 29.8766 12.3453 31.7956C12.1299 32.8041 11.8166 33.9595 12.4432 34.7721C12.6782 35.0854 13.0209 35.291 13.3636 35.4771C15.9876 36.8674 19.248 36.9751 21.9504 35.7512C22.2735 35.6044 22.6064 35.4281 22.8218 35.1442C23.1938 34.6448 23.1253 33.9497 23.0372 33.3328C22.5966 30.141 22.3028 26.8707 22.9784 23.7278C23.654 20.5849 25.4262 17.5399 28.2558 16.0027C27.776 15.2292 27.2082 14.5144 26.5717 13.8584C26.4738 13.7605 26.3661 13.6528 26.2193 13.643C26.1018 13.6332 25.9941 13.7018 25.8962 13.7605C23.7225 15.1509 21.9601 17.1678 20.8733 19.4981C21.3825 16.9524 21.8916 14.2697 21.1475 11.7827C21.1181 11.675 21.0789 11.5575 20.9908 11.489C20.8831 11.4107 20.7363 11.4107 20.609 11.4205C19.8746 11.4792 19.1403 11.6065 18.4256 11.8023C18.2102 11.8611 17.985 11.9296 17.8479 12.1058C17.6717 12.3212 17.6717 12.6346 17.6815 12.9087C17.75 14.6026 17.8283 16.2866 17.8969 17.9805C17.9067 18.284 17.7794 18.705 17.4856 18.6365C17.3779 18.6071 17.2996 18.5092 17.2311 18.4113C16.4576 17.2266 16.624 15.6502 16.017 14.3774C15.5764 13.457 14.7246 12.7325 13.7455 12.4583C12.7663 12.1842 11.66 12.3506 10.8081 12.9087C11.797 13.9466 12.0124 13.9857 12.5803 15.3075C11.6404 15.0236 11.611 15.3173 10.8669 14.6809C9.8584 13.8193 8.56599 13.3689 7.29315 12.9968C6.83297 12.8695 6.363 12.7423 5.89303 12.7912C5.42306 12.8402 4.94329 13.1143 4.77685 13.5549C4.46353 14.3871 5.1587 14.5046 5.71679 14.6026C6.44133 14.72 7.17566 15.0725 7.79249 15.4642C9.08491 16.267 10.1423 17.4615 10.8571 18.8127Z"
          fill="#80CC37"/>
    <path d="M19.6584 16.0085C20.2948 16.3022 20.9117 16.7232 21.2935 17.2911C21.5774 15.4504 21.6851 13.5901 21.1564 11.8179C21.127 11.7102 21.0879 11.5927 20.9998 11.5242C20.8921 11.4458 20.7452 11.4458 20.6179 11.4556C19.8836 11.5144 19.1493 11.6416 18.4345 11.8375C18.2191 11.8962 17.9939 11.9648 17.8568 12.141C17.6806 12.3564 17.6806 12.6697 17.6904 12.9439C17.7296 13.9034 17.7687 14.8531 17.8079 15.8126C17.8666 15.7833 17.9254 15.7637 17.9939 15.7441C18.552 15.5874 19.1395 15.7637 19.6584 16.0085Z"
          fill="#5BB234"/>
    <path d="M26.2379 13.6689C26.1205 13.6591 26.0128 13.7277 25.9148 13.7864C24.2993 14.8243 22.909 16.2048 21.8516 17.8105C22.7034 18.0259 23.2517 19.0148 23.2713 19.9254C23.2908 20.9339 22.8503 21.8836 22.5271 22.8431C21.5578 25.7315 21.6949 28.9625 22.8503 31.7824C22.5369 29.0996 22.4292 26.3875 22.9971 23.7537C23.6727 20.6108 25.4449 17.5657 28.2745 16.0286C27.7947 15.2551 27.2268 14.5403 26.5904 13.8843C26.4925 13.7864 26.375 13.6787 26.2379 13.6689Z"
          fill="#5BB234"/>
    <path d="M15.3203 16.6735C15.7707 16.6245 16.2113 16.7126 16.6421 16.8497C16.4757 16.0273 16.3777 15.1755 16.0253 14.4215C15.5847 13.5012 14.7328 12.7766 13.7537 12.5025C12.7746 12.2283 11.6682 12.3948 10.8164 12.9529C11.8053 13.9907 12.0207 14.0299 12.5886 15.3517C11.6487 15.0678 11.6193 15.3615 10.8752 14.7251C9.86669 13.8635 8.57428 13.4131 7.30144 13.041C6.84126 12.9137 6.3713 12.7864 5.90133 12.8354C5.43136 12.8843 4.9516 13.1585 4.78515 13.5991C4.47183 14.4313 5.16699 14.5488 5.72508 14.6467C6.44962 14.7642 7.18394 15.1167 7.80078 15.5083C8.82884 16.1448 9.71003 17.0358 10.3856 18.0442C10.65 17.5938 11.1885 17.2805 11.727 17.2218C12.4515 17.1435 13.1663 17.4078 13.8223 17.7015C14.0573 17.0945 14.6937 16.7322 15.3203 16.6735Z"
          fill="#5BB234"/>
    <path d="M0.781448 6.82716C1.12413 6.17116 1.83888 5.58369 2.54384 5.81868C2.02491 5.17247 2.35781 4.21295 2.81799 3.52757C4.72724 0.688169 8.56534 -0.672788 11.8356 0.3259C15.1058 1.32459 17.5242 4.61438 17.5144 8.03146C17.5144 8.25665 17.5241 8.51122 17.7004 8.64829C18.0039 8.8637 18.3858 8.48184 18.5522 8.13916C19.267 6.72925 19.8446 5.23122 20.7258 3.90942C21.607 2.58763 22.8799 1.44208 24.4366 1.12877C25.9934 0.825243 27.8146 1.59874 28.3139 3.10656C29.7826 2.32327 31.7212 2.6268 32.9548 3.74298C34.1885 4.85916 34.7074 6.6705 34.3648 8.29581C34.0221 9.92113 32.8765 11.331 31.4177 12.1241C30.5267 12.6039 29.5182 12.878 28.5097 12.8584C26.9627 12.8291 25.5137 12.1437 24.045 11.6346C21.2545 10.675 18.2487 10.3324 15.3212 10.6555C12.4524 10.9688 9.68151 11.8989 6.82253 12.2122C5.16784 12.3885 2.95507 12.8095 1.71161 11.4975C0.517102 10.2638 -0.0703734 8.43289 0.781448 6.82716Z"
          fill="#80CC37"/>
    <path d="M29.508 7.35537C28.2449 6.40563 26.5511 5.60277 25.1314 6.29793C24.7985 5.04468 23.8487 3.97746 22.6444 3.50748C21.4401 3.02772 20.0204 3.15501 18.9238 3.83059C18.8455 3.87954 18.7672 3.9285 18.6889 3.9285C18.4735 3.93829 18.3462 3.7131 18.2483 3.52707C17.6216 2.37172 16.2803 1.79405 14.9976 1.53948C12.0114 0.942229 8.65303 1.78426 6.62628 4.05578C5.64718 5.15238 5.00097 6.69937 5.47094 8.0897C4.00229 8.15823 2.55322 8.90236 1.71118 10.1164C0.869154 11.3305 0.722276 13.0048 1.40765 14.3168C2.13219 15.6973 4.49183 17.0975 6.10736 16.7352C6.47942 16.745 6.90044 16.6569 7.42915 16.4513C8.33972 16.089 9.13279 15.4036 9.53422 14.5126C9.98461 15.5015 11.3554 15.9323 12.4422 15.9127C13.4996 15.8834 14.5277 15.4917 15.1837 14.6791C15.683 14.2091 16.2901 13.886 16.9558 13.6804C17.1125 13.8468 17.2789 13.9839 17.4748 14.0916C18.1993 14.5028 19.2078 14.4049 19.7659 13.7881C19.6875 14.5616 19.7463 15.7659 22.8794 17.5968C25.7678 19.2907 27.7358 18.5563 28.1274 18.3997C28.2449 18.3507 28.3428 18.292 28.431 18.2136C29.8702 17.4206 31.0843 16.2065 31.8774 14.7672C32.2984 14.0035 32.6117 13.1517 32.6215 12.2803C32.6215 10.2535 31.1137 8.55967 29.508 7.35537Z"
          fill="#88DD3E"/>
    <path d="M16.3984 7.38497C16.4475 7.2573 16.4966 7.12963 16.5261 7.00195C16.477 7.12963 16.4279 7.2573 16.3984 7.38497Z"
          fill="#80CC37"/>
    <path d="M30.2235 7.98397C31.1047 9.04141 31.5355 10.4807 31.1243 11.7829C30.9284 12.4291 30.5172 13.0362 29.9004 13.3201C29.2933 13.604 28.4709 13.4865 28.0792 12.9382C27.8149 14.6321 25.9448 15.8951 24.2705 15.5133C22.5963 15.1314 21.4605 13.183 21.9598 11.5381C21.5192 12.0864 20.6185 12.1941 20.0604 11.7633C19.5023 11.3423 19.3554 10.4513 19.7666 9.87365C18.9442 10.3828 17.7986 10.2849 17.0839 9.64845C16.4671 9.10015 16.2027 8.18958 16.3985 7.38672C16.095 8.14063 15.5761 8.81621 14.832 9.13932C13.9703 9.51138 12.815 9.23723 12.394 8.3952C13.1675 9.8149 12.6485 11.7927 11.2778 12.6445C10.5239 13.1145 9.32937 13.1439 8.91815 12.3508C8.44818 12.8208 7.8901 13.2516 7.2341 13.3691C6.5781 13.4865 5.8046 13.1928 5.56961 12.5662C5.44233 13.6432 4.61988 14.5929 3.58203 14.8867C2.92603 15.0727 2.21129 14.9846 1.60425 14.6908C2.50502 15.9539 4.61009 17.1092 6.08854 16.7763C6.4606 16.7861 6.88162 16.698 7.41033 16.4924C8.3209 16.1301 9.11397 15.4448 9.5154 14.5538C9.96579 15.5427 11.3365 15.9735 12.4233 15.9539C13.4808 15.9245 14.5088 15.5329 15.1648 14.7202C15.6642 14.2502 16.2712 13.9271 16.937 13.7215C17.0937 13.888 17.2601 14.0251 17.4559 14.1328C18.1805 14.544 19.189 14.4461 19.7471 13.8292C19.6687 14.6027 19.7275 15.807 22.8606 17.6379C25.749 19.3318 27.717 18.5975 28.1086 18.4408C28.2261 18.3919 28.324 18.3331 28.4121 18.2548C29.8514 17.4617 31.0655 16.2476 31.8586 14.8083C32.2796 14.0446 32.5929 13.1928 32.6027 12.3214C32.6125 10.5982 31.5355 9.12953 30.2235 7.98397Z"
          fill="#80CC37"/>
    <path d="M9.80841 2.80443C9.28949 3.059 8.8489 3.46043 8.48663 3.91082C8.09499 4.40037 7.78167 4.96825 7.67397 5.58509C7.56627 6.20192 7.69355 6.8775 8.08519 7.35727C7.29212 7.47476 6.63612 8.20909 6.60675 9.01195C6.57738 9.81482 7.17463 10.5883 7.94812 10.7743C7.5369 10.275 7.60543 9.49172 8.01665 8.99237C8.42787 8.49303 9.10346 8.27763 9.74967 8.31679C9.71051 8.01327 9.45594 7.78807 9.30908 7.52371C9.07409 7.09291 9.11326 6.56419 9.22096 6.08443C9.3972 5.33052 9.75946 4.57661 10.3763 4.10664C10.9931 3.62688 11.9037 3.4898 12.5597 3.90103C12.5401 3.89124 12.3932 3.21565 12.3149 3.10795C12.1485 2.87297 11.9135 2.70652 11.6491 2.6184C11.0715 2.40299 10.3567 2.53028 9.80841 2.80443Z"
          fill="#A3F251"/>
    <path d="M3.39534 9.38184C2.86662 9.73432 2.53374 10.4295 2.74914 11.0267C2.18126 11.4282 1.92669 12.2212 2.15188 12.8772C2.37708 13.5332 3.05265 14.013 3.74782 13.9934C3.22889 13.8661 2.8862 13.2689 3.01349 12.7402C3.13098 12.2115 3.64992 11.8296 4.18843 11.8002C3.93386 11.6044 3.6597 11.3792 3.57158 11.0659C3.43451 10.6057 3.76741 10.0966 4.2178 9.93993C4.66819 9.78327 5.1871 9.92035 5.56895 10.2043C5.56895 10.2043 5.50042 9.5385 5.45146 9.4308C5.36334 9.25456 5.27523 9.12727 5.0892 9.05874C4.59965 8.87271 3.79677 9.10769 3.39534 9.38184Z"
          fill="#A3F251"/>
    <path d="M15.5373 4.17549C16.1346 4.10695 16.7612 4.09716 17.2997 4.37131C17.9655 4.7042 18.3865 5.38958 18.6215 6.10432C19.2579 5.51686 20.2762 5.51686 21.0693 5.85955C21.6567 6.11411 22.2051 6.57429 22.3617 7.20092C22.489 7.69047 22.3715 8.21919 22.1071 8.65C21.8428 9.0808 21.4609 9.42349 21.0399 9.70743C21.5882 9.4137 21.8624 8.69895 21.6763 8.1017C21.5001 7.50444 20.9126 7.06384 20.286 7.02468C19.6594 6.97573 19.0425 7.30862 18.6901 7.82755C18.7292 7.09322 18.3572 6.3491 17.7501 5.92808C17.2997 5.61477 16.7416 5.4777 16.1933 5.42874C15.6548 5.37978 15.0772 5.40916 14.6072 5.68331C14.1372 5.95746 13.8043 6.52534 13.9512 7.05405C13.7652 6.38826 13.2658 5.71268 13.7554 5.01752C14.147 4.45943 14.8911 4.25381 15.5373 4.17549Z"
          fill="#A3F251"/>
    <path d="M24.1333 8.00191C24.476 7.75714 24.9068 7.65923 25.3278 7.63965C25.553 7.62986 25.7977 7.63965 25.9936 7.74735C26.1992 7.85505 26.3461 8.08024 26.3069 8.30544C26.7671 8.01171 27.4133 8.27607 27.7168 8.72645C28.0595 9.2258 28.0595 9.93075 27.7266 10.4399C27.3937 10.949 26.7475 11.2232 26.16 11.1155C26.4831 11.0469 26.7768 10.8217 26.8943 10.5084C27.0118 10.1951 26.9139 9.81326 26.6496 9.61744C26.3754 9.42162 25.9544 9.49016 25.7782 9.7643C26.0229 9.42162 25.8761 8.88311 25.504 8.6775C25.132 8.47189 24.6326 8.59917 24.3683 8.93207C24.1039 9.26496 24.0941 9.75451 24.2899 10.1266C24.2214 9.99929 23.9472 9.8818 23.8493 9.73493C23.7318 9.55869 23.6731 9.3335 23.6339 9.12789C23.5556 8.68729 23.7416 8.27606 24.1333 8.00191Z"
          fill="#A3F251"/>
    <path opacity="0.24"
          d="M13.6472 26.7522C13.7451 28.495 13.5101 30.2476 12.952 31.9023C12.7268 32.5681 12.4625 33.3122 12.7954 33.929C12.9227 34.164 13.1283 34.3501 13.3535 34.4969C13.8137 34.7907 14.3717 34.9375 14.9102 34.8984C15.0473 34.8886 15.1942 34.869 15.3215 34.8005C15.5271 34.6927 15.6446 34.4676 15.7131 34.2522C15.9579 33.4689 15.6544 32.6268 15.439 31.8338C14.9886 30.1595 14.9592 28.4069 14.6948 26.7033C14.6263 26.2724 14.5871 24.8527 13.9507 24.8332C13.2947 24.7842 13.6276 26.341 13.6472 26.7522Z"
          fill="white"/>
    <path d="M22.8015 24.8164C24.5149 26.1186 24.0352 28.8112 22.4882 29.7609C21.9888 30.0644 20.9216 30.2113 19.6096 30.27"
          stroke="#4C9B23" stroke-width="0.48987" stroke-miterlimit="10" stroke-linecap="round"/>
    <path fill-rule="evenodd" clip-rule="evenodd"
          d="M18.8274 30.377C19.4442 30.7197 20.11 30.6903 20.3254 30.3085C20.5408 29.9266 20.2177 29.3392 19.6009 28.9965C18.984 28.6538 18.3182 28.6832 18.1028 29.065C17.8874 29.4371 18.2203 30.0245 18.8274 30.377Z"
          fill="#4C9B23"/>
    <path d="M12.5115 24.9434C10.8471 26.3141 10.8764 28.0178 12.1591 29.3102C12.8151 29.976 13.8921 30.3187 15.2824 30.1522"
          stroke="#4C9B23" stroke-width="0.48987" stroke-miterlimit="10" stroke-linecap="round"/>
    <path fill-rule="evenodd" clip-rule="evenodd"
          d="M16.222 30.2308C15.6248 30.6029 14.9492 30.5931 14.724 30.221C14.4988 29.849 14.7925 29.2419 15.3996 28.8797C15.9968 28.5076 16.6724 28.5174 16.8976 28.8895C17.1228 29.2615 16.8291 29.8588 16.222 30.2308Z"
          fill="#4C9B23"/>
    <path d="M13.9017 20.5472C13.1674 20.5668 12.5799 21.3795 12.5995 22.3586C12.6191 23.3475 13.2359 24.1308 13.98 24.1112C14.7143 24.0916 15.3018 23.2789 15.2822 22.2998C15.2528 21.3109 14.636 20.5277 13.9017 20.5472ZM13.2555 22.0061C12.8932 22.0551 12.8247 21.497 13.1869 21.448C13.5492 21.3991 13.6177 21.9669 13.2555 22.0061Z"
          fill="#5A3A1C"/>
    <path d="M22.9195 22.5049C23.0076 21.5943 22.4887 20.7915 21.7544 20.7131C21.02 20.6348 20.3542 21.3202 20.2563 22.2307C20.1682 23.1413 20.6871 23.9442 21.4215 24.0225C22.1558 24.1008 22.8314 23.4253 22.9195 22.5049ZM22.332 22.0937C21.9698 22.0349 22.0579 21.4866 22.4202 21.5356C22.7824 21.5943 22.6943 22.1524 22.332 22.0937Z"
          fill="#5A3A1C"/>
    <path d="M16.9572 24.2974C16.9964 24.6695 17.251 24.9338 17.6034 25.0415C17.9265 25.1394 18.3084 25.0905 18.5727 24.8653C18.7392 24.7282 18.8175 24.5226 18.8371 24.317C18.8469 24.2093 18.7294 24.1114 18.6315 24.1114C18.514 24.1114 18.4357 24.2093 18.4259 24.317C18.4259 24.2778 18.4259 24.3072 18.4259 24.3268C18.4259 24.3464 18.4161 24.3562 18.4161 24.3757C18.4161 24.3953 18.4063 24.4051 18.3965 24.4247C18.3965 24.4443 18.4063 24.4051 18.4063 24.4051C18.4063 24.4149 18.3965 24.4247 18.3965 24.4247C18.3867 24.4541 18.3671 24.4736 18.3475 24.503C18.328 24.5324 18.3769 24.4736 18.3475 24.503C18.3378 24.5128 18.328 24.5324 18.3084 24.5422C18.2986 24.552 18.2888 24.5618 18.279 24.5716C18.2986 24.552 18.2986 24.552 18.279 24.5716C18.2594 24.5911 18.2301 24.6009 18.2007 24.6205C18.1713 24.6303 18.1615 24.6303 18.2007 24.6205C18.1909 24.6205 18.1713 24.6303 18.1615 24.6401C18.1321 24.6499 18.1028 24.6597 18.0636 24.6695C18.0538 24.6695 18.0049 24.6793 18.044 24.6793C18.0734 24.6695 18.0342 24.6793 18.0244 24.6793C17.9951 24.6793 17.9559 24.6793 17.9265 24.6793C17.8972 24.6793 17.8678 24.6695 17.8384 24.6695C17.8776 24.6695 17.8678 24.6695 17.8384 24.6695C17.8188 24.6695 17.809 24.6597 17.7895 24.6597C17.7601 24.6499 17.7307 24.6401 17.7013 24.6303C17.6915 24.6303 17.672 24.6205 17.6622 24.6107C17.6426 24.6009 17.6818 24.6205 17.6818 24.6205C17.672 24.6107 17.6622 24.6107 17.6524 24.6107C17.623 24.6009 17.6034 24.5814 17.5741 24.5716C17.5643 24.5618 17.5545 24.5618 17.5447 24.552C17.5055 24.5226 17.5741 24.5716 17.5349 24.5422C17.5055 24.5226 17.4859 24.4932 17.4664 24.4736C17.437 24.4345 17.4859 24.503 17.4566 24.4639C17.4468 24.4541 17.437 24.4345 17.4272 24.4247C17.4174 24.4149 17.4174 24.3953 17.4076 24.3757C17.3978 24.3562 17.4174 24.3953 17.4174 24.3953C17.4174 24.3855 17.4076 24.3757 17.4076 24.3659C17.3978 24.3464 17.3978 24.3366 17.3978 24.317C17.3978 24.3072 17.3978 24.3072 17.3978 24.2974C17.388 24.2485 17.3978 24.3464 17.3978 24.2974C17.388 24.1897 17.3097 24.0918 17.1922 24.0918C17.0551 24.0918 16.9376 24.1897 16.9572 24.2974Z"
          fill="#5A3A1C"/>
</svg>
