<svg width="32" height="47" viewBox="0 0 32 47" fill="none" xmlns="http://www.w3.org/2000/svg">
    <path d="M25.7193 44.4689H24.3861C24.7298 40.4486 23.0946 35.116 23.0217 34.8764C22.9488 34.6369 22.6884 34.4911 22.4384 34.5744C22.1989 34.6473 22.0531 34.9077 22.1364 35.1577C22.1572 35.2201 23.9383 41.0423 23.4071 44.9064C23.3967 44.9585 23.3862 45.0105 23.3862 45.073C23.3862 45.0834 23.3862 45.0939 23.3862 45.1043C23.3862 45.2293 23.4279 45.3438 23.5112 45.4376C23.6154 45.5834 23.7924 45.6667 23.9799 45.6667H25.7193C26.0526 45.6667 26.3129 45.3959 26.3129 45.073C26.3129 44.7397 26.0422 44.4689 25.7193 44.4689Z"
          fill="#85C7F2"/>
    <path d="M25.0954 19.5755C25.2412 19.3672 25.5224 19.3047 25.7412 19.4506C25.9286 19.5755 30.2822 22.5752 30.428 31.7198C30.428 31.7302 30.428 31.7406 30.428 31.751C30.6988 31.8344 31.0321 32.0739 31.3342 32.4176C31.8133 32.9592 32.0112 33.5633 31.782 33.7612C31.5633 33.9487 31.0217 33.6987 30.5634 33.1884C30.5843 33.8966 30.3656 34.4903 30.0739 34.5007C29.7927 34.5111 29.5323 34.0008 29.4803 33.3342C29.0741 33.8133 28.6158 34.0632 28.3971 33.8966C28.1575 33.7195 28.3033 33.105 28.7304 32.5218C28.9803 32.1781 29.2719 31.9281 29.5115 31.8135C29.5115 31.7927 29.5011 31.7615 29.5011 31.7406C29.3657 23.1376 25.2829 20.263 25.2204 20.2317C25.0017 20.0755 24.9496 19.7839 25.0954 19.5755Z"
          fill="#85C7F2"/>
    <path d="M13.2432 45.2304L11.8475 44.9075L13.3577 36.3253C13.3994 36.0754 13.2328 35.8358 12.9828 35.7837C12.7328 35.7421 12.4933 35.9087 12.4412 36.1587L10.8372 45.2617C10.8372 45.2721 10.8268 45.2825 10.8268 45.2929C10.8164 45.3242 10.8164 45.345 10.8164 45.3762V45.3866V45.3971C10.8164 45.4075 10.8164 45.4179 10.8164 45.4179C10.806 45.5533 10.8477 45.6679 10.9206 45.7616C11.0039 45.8762 11.1289 45.9699 11.2747 46.0012L12.9724 46.3865C13.2952 46.4594 13.6181 46.2615 13.691 45.9387C13.7639 45.6262 13.566 45.3033 13.2432 45.2304Z"
          fill="#85C7F2"/>
    <path d="M5.18092 22.0957C5.01427 21.8979 4.72264 21.877 4.52475 22.0437C4.3581 22.1895 0.358627 25.6578 1.23351 34.7608C1.23351 34.7712 1.23351 34.7816 1.24393 34.792C0.983545 34.8962 0.681503 35.1774 0.421121 35.5523C0.0149233 36.146 -0.120478 36.7709 0.129489 36.9376C0.369041 37.1042 0.868979 36.7918 1.27518 36.2293C1.32725 36.9376 1.60847 37.5 1.91051 37.4792C2.19172 37.4583 2.38961 36.9272 2.36878 36.2606C2.81664 36.6876 3.30616 36.8855 3.50405 36.698C3.72277 36.4897 3.50405 35.896 3.01453 35.3649C2.7229 35.0524 2.41045 34.8337 2.15006 34.7504C2.15006 34.7295 2.15006 34.6983 2.15006 34.6774C1.32725 26.1056 5.06635 22.804 5.10801 22.7623C5.31632 22.5853 5.34756 22.2936 5.18092 22.0957Z"
          fill="#85C7F2"/>
    <path d="M1.71301 2.49516L7.56642 38.98C7.66016 39.5945 8.22258 40.032 8.8475 39.9799C14.8155 40.6881 25.4287 38.5009 25.4287 38.5009C26.0536 38.4488 26.5223 37.9177 26.3973 36.0012L25.7203 0.349609L1.71301 2.49516Z"
          fill="#85C7F2"/>
    <path d="M14.3881 8.45105H14.3361L4.89978 9.24261L9.13881 35.9267C9.27421 36.8015 10.0033 37.4473 10.8573 37.5098C11.6489 37.5931 17.6794 38.1139 23.0016 36.4162C23.012 36.4162 23.0224 36.4058 23.0328 36.4058C23.8244 36.1662 24.3868 35.4163 24.366 34.5622L23.8244 7.51367L14.3881 8.45105Z"
          fill="white"/>
    <path d="M25.7202 0.349292C25.7618 0.859643 20.4292 1.76578 13.805 2.34903C7.18089 2.94271 1.76493 3.0052 1.72326 2.48443C1.6816 1.96367 7.01424 1.06795 13.6384 0.484691C20.2625 -0.108982 25.6681 -0.161058 25.7202 0.349292Z"
          fill="#AFE0FF"/>
    <path d="M23.8142 7.52514C23.8454 7.85843 19.6376 8.52501 14.4091 8.9937C9.18065 9.47281 4.9312 9.58737 4.89995 9.24367C4.86871 8.91038 9.0765 8.2438 14.305 7.77511C19.5231 7.30642 23.7829 7.19185 23.8142 7.52514Z"
          fill="#D5D5D6"/>
    <path d="M10.6489 13.8272C9.77397 13.9209 9.15947 14.952 9.28446 16.1186C9.40944 17.2851 10.2218 18.16 11.1071 18.0662C11.982 17.9725 12.5965 16.9414 12.4715 15.7749C12.3466 14.6083 11.5342 13.7335 10.6489 13.8272ZM10.0344 15.6395C9.60732 15.7332 9.47192 15.077 9.88854 14.9833C10.3156 14.8896 10.451 15.5457 10.0344 15.6395Z"
          fill="#5A3A1C"/>
    <path d="M21.5949 15.2531C21.6157 14.1491 20.9075 13.2533 20.0326 13.2325C19.1473 13.2221 18.4182 14.097 18.4078 15.201C18.387 16.305 19.0952 17.2007 19.9701 17.2216C20.845 17.232 21.5845 16.3571 21.5949 15.2531ZM20.8554 14.8261C20.4284 14.7948 20.47 14.1282 20.8971 14.1595C21.3345 14.1803 21.2928 14.8573 20.8554 14.8261Z"
          fill="#5A3A1C"/>
    <path d="M18.0446 17.055C17.8675 16.9196 17.4926 17.0654 17.2947 17.0862C16.8364 17.1487 16.3677 17.2008 15.9094 17.2529C15.0866 17.3362 14.2222 17.5237 13.3994 17.4924C13.2535 17.482 13.1702 17.5862 13.1494 17.7112C13.139 17.732 13.1181 17.7424 13.1077 17.7632C13.0765 17.982 13.0869 18.2111 13.1077 18.4298C13.1598 18.5444 13.1598 18.7214 13.1806 18.8985C13.2119 19.0339 13.2431 19.1693 13.2744 19.3047C13.3473 19.4922 13.441 19.6692 13.5556 19.8255C13.8472 20.2317 14.2847 20.5545 14.7638 20.6899C15.8365 21.0024 17.5759 20.6899 18.1696 19.6484C18.4508 19.1068 18.4716 17.3675 18.0446 17.055Z"
          fill="#FF5A72"/>
    <path d="M16.3251 18.9707C15.3149 18.9707 14.3462 19.2311 13.4297 19.6269C13.4609 19.6894 13.5026 19.7519 13.5443 19.8039C13.8359 20.2101 14.2733 20.533 14.7524 20.6684C15.8252 20.9809 17.5646 20.6684 18.1582 19.6269C18.2103 19.5331 18.252 19.4081 18.2832 19.2519C17.6375 19.0853 16.9917 18.9707 16.3251 18.9707Z"
          fill="#FF929D"/>
    <path d="M17.1997 17.1716C16.6581 17.1196 16.5227 17.2966 15.9707 17.3279C15.3666 17.3695 15.0125 17.4008 14.4084 17.3904C14.0751 17.3904 13.9918 17.7236 14.2834 17.8174C15.0437 18.0882 16.5435 17.9215 17.2101 17.5882C17.3872 17.5049 17.3976 17.1925 17.1997 17.1716Z"
          fill="white"/>
    <path d="M13.2317 17.7104C14.7836 17.6167 16.3355 17.4396 17.8874 17.3146C17.9707 17.3042 18.054 17.3042 18.1478 17.2938C18.1894 17.2938 18.179 17.3042 18.179 17.2938C18.1686 17.273 18.0645 17.2105 18.054 17.2313C18.0436 17.2521 18.0645 17.3354 18.0749 17.3667C18.1165 17.7937 18.1478 18.2624 18.1061 18.6894C18.054 19.1998 17.8666 19.6893 17.4812 20.0434C17.0229 20.46 16.3772 20.6371 15.7731 20.6371C15.0648 20.6371 14.2941 20.3767 13.8671 19.783C13.4088 19.1373 13.3776 18.3145 13.3463 17.5542C13.3359 17.3459 13.013 17.3667 13.0234 17.5854C13.0443 18.3145 13.0964 19.0748 13.4505 19.731C13.7838 20.3455 14.367 20.7204 15.0232 20.8871C16.2209 21.1891 17.7312 20.7517 18.2311 19.5435C18.4394 19.054 18.4498 18.5332 18.4394 18.0124C18.429 17.7729 18.429 17.5333 18.3977 17.2938C18.3769 17.1584 18.3561 17.0126 18.1999 16.9813C18.0124 16.9501 17.7832 17.0126 17.5958 17.023C17.1791 17.0646 16.7625 17.0959 16.3459 17.1376C15.3044 17.2313 14.2524 17.3354 13.2109 17.3979C13.0026 17.3979 13.0234 17.7312 13.2317 17.7104Z"
          fill="#5A3A1C"/>
</svg>
