<svg width="36" height="44" viewBox="0 0 36 44" fill="none" xmlns="http://www.w3.org/2000/svg">
    <path d="M18.3522 10.2568C18.3996 10.6356 18.1249 10.9861 17.7366 11.0334C17.3578 11.0808 17.0074 10.8061 16.96 10.4178C16.7517 8.64681 16.174 7.25463 15.3595 6.20339C14.4408 5.01008 13.2097 4.22402 11.8932 3.81678C11.5239 3.70313 11.325 3.30537 11.4386 2.94548C11.5523 2.57613 11.9501 2.37724 12.3099 2.49089C13.8726 2.98336 15.3406 3.92096 16.4581 5.3605C17.4241 6.60115 18.1155 8.22063 18.3522 10.2568Z"
          fill="#A44C00"/>
    <path fill-rule="evenodd" clip-rule="evenodd"
          d="M17.4428 8.76919C18.4561 7.85054 20.3503 7.49066 21.9508 7.8316C27.6237 9.03437 32.217 13.6561 33.0978 19.7362C34.2248 27.5211 28.8265 34.7472 21.0322 35.8742C13.2473 37.0012 6.02117 31.6029 4.89417 23.8086C3.98498 17.6148 7.22394 11.7714 12.5086 9.07226C13.8629 8.3809 15.6907 8.3809 17.4428 8.76919Z"
          fill="#FF8A00"/>
    <path fill-rule="evenodd" clip-rule="evenodd"
          d="M21.894 7.81196C23.1062 8.06767 24.2806 8.4749 25.3697 9.0242C27.7942 11.174 29.4894 14.1668 29.9914 17.6236C31.1184 25.4084 25.7201 32.6345 17.9258 33.7615C14.933 34.1972 12.0161 33.6668 9.50634 32.3978C7.08186 30.2479 5.38661 27.2552 4.88467 23.7984C4.01337 17.8035 7.01556 12.14 11.9971 9.33673C12.2055 9.22308 12.4138 9.10944 12.6222 9.01473C14.0238 8.36126 15.4539 8.16237 17.367 8.6359C18.6076 7.62254 20.3408 7.48996 21.894 7.81196Z"
          fill="#FF9200"/>
    <path d="M7.97156 21.1581C8.20832 16.849 10.9738 13.0512 14.9798 11.498" stroke="#FFB034" stroke-width="4.64521"
          stroke-miterlimit="22.9256" stroke-linecap="round" stroke-linejoin="round"/>
    <path fill-rule="evenodd" clip-rule="evenodd"
          d="M25.3597 1.82714C23.8065 6.9413 15.9553 7.39589 15.2072 4.20428C14.459 1.01267 21.6946 -2.07477 25.3597 1.82714Z"
          fill="#7CAD00"/>
    <path fill-rule="evenodd" clip-rule="evenodd"
          d="M25.3593 1.82617C23.8061 6.94032 15.955 7.39491 15.2068 4.20331C17.9059 2.71641 21.4101 1.95876 25.3593 1.82617Z"
          fill="#608A00"/>
    <path d="M21.877 42.3513L23.1366 42.143C22.1896 38.3831 22.8999 33.0701 22.9283 32.8333C22.9662 32.5871 23.184 32.4166 23.4302 32.4545C23.6765 32.4924 23.8469 32.7102 23.8091 32.9564C23.7996 33.0133 23.023 38.8188 24.1311 42.3987C24.15 42.446 24.1689 42.4934 24.1784 42.5502C24.1784 42.5597 24.1784 42.5691 24.1784 42.5786C24.1974 42.6923 24.1784 42.8154 24.1121 42.9101C24.0269 43.0616 23.8848 43.1753 23.7049 43.2037L22.057 43.4783C21.7445 43.5257 21.4509 43.3173 21.394 43.0048C21.3467 42.7017 21.5645 42.4081 21.877 42.3513Z"
          fill="#FF8A00"/>
    <path d="M17.1127 42.1234L15.7395 42.0571L15.7206 33.6756C15.7206 33.4294 15.5217 33.2305 15.2754 33.2305C15.0292 33.2305 14.8303 33.4294 14.8303 33.6756L14.8398 42.5591C14.8398 42.5685 14.8398 42.578 14.8398 42.5875C14.8398 42.6159 14.8398 42.6443 14.8398 42.6727V42.6822V42.6917C14.8398 42.7011 14.8398 42.7106 14.8398 42.7106C14.8493 42.8337 14.9061 42.9474 15.0008 43.0231C15.0955 43.1178 15.2281 43.1841 15.3796 43.1936L17.0465 43.2694C17.359 43.2883 17.6336 43.0421 17.6431 42.7201C17.6715 42.4075 17.4348 42.1329 17.1127 42.1234Z"
          fill="#FF8A00"/>
    <path d="M32.274 24.4336C34.3197 26.1288 36.0907 29.5383 34.1871 30.7032C32.2835 31.8586 29.9064 31.1672 29.1771 32.3321"
          stroke="#FF8A00" stroke-width="1.2508" stroke-miterlimit="10" stroke-linecap="round"/>
    <path fill-rule="evenodd" clip-rule="evenodd"
          d="M30.6933 32.6556C30.2103 31.9358 29.4621 31.5949 29.0075 31.8885C28.5624 32.1916 28.5908 33.0155 29.0643 33.7353C29.5473 34.455 30.2955 34.796 30.7501 34.5024C31.2047 34.2088 31.1763 33.3754 30.6933 32.6556Z"
          fill="#FF8A00"/>
    <path d="M5.90794 26.6323C3.30351 26.1304 0.111896 23.9805 1.22943 22.0485C2.34697 20.1165 4.76199 19.5956 4.84722 18.2129"
          stroke="#FF8A00" stroke-width="1.2508" stroke-miterlimit="10" stroke-linecap="round"/>
    <path fill-rule="evenodd" clip-rule="evenodd"
          d="M3.39813 18.6001C4.17473 19.102 5.00814 19.0357 5.24491 18.4675C5.49115 17.8898 5.0555 17.0279 4.2789 16.526C3.50231 16.024 2.66889 16.0903 2.43213 16.6586C2.18589 17.2268 2.62154 18.0981 3.39813 18.6001Z"
          fill="#FF8A00"/>
    <path d="M14.2613 18.9358C13.3427 18.9548 12.6229 19.9681 12.6513 21.1898C12.6797 22.4115 13.4469 23.387 14.3655 23.3681C15.2842 23.3491 16.0039 22.3358 15.9755 21.1141C15.9471 19.8924 15.18 18.9169 14.2613 18.9358ZM13.4658 20.7542C13.0207 20.811 12.926 20.1197 13.3806 20.0628C13.8257 20.006 13.9109 20.6974 13.4658 20.7542Z"
          fill="#5A3A1C"/>
    <path d="M21.4969 22.9532C21.3264 22.8017 20.9192 22.9153 20.7108 22.9248C20.2278 22.9437 19.7448 22.9627 19.2618 22.9721C18.4 22.9911 17.4908 23.1047 16.6384 22.9911C16.4964 22.9721 16.4017 23.0669 16.3638 23.19C16.3448 23.2089 16.3354 23.2184 16.3164 23.2373C16.2691 23.4646 16.2501 23.6919 16.2501 23.9287C16.288 24.0518 16.2785 24.2412 16.2785 24.4117C16.2975 24.5537 16.3164 24.6958 16.3354 24.8379C16.3922 25.0367 16.4774 25.2262 16.5816 25.4061C16.8468 25.8512 17.273 26.2206 17.756 26.41C18.8356 26.8267 20.6729 26.6562 21.3737 25.6239C21.7336 25.1125 21.9136 23.3226 21.4969 22.9532Z"
          fill="#FF5A72"/>
    <path d="M19.5458 24.7906C18.4946 24.7053 17.4718 24.8853 16.4868 25.2168C16.5152 25.2831 16.5436 25.3493 16.5815 25.4062C16.8467 25.8513 17.2729 26.2206 17.7559 26.4101C18.8355 26.8268 20.6728 26.6563 21.3737 25.624C21.44 25.5293 21.4873 25.4062 21.5441 25.2546C20.9001 25.0273 20.2372 24.8474 19.5458 24.7906Z"
          fill="#FF929D"/>
    <path d="M20.6163 23.0006C20.0575 22.8965 19.906 23.0669 19.3377 23.0575C18.7032 23.048 18.3433 23.048 17.7088 22.9817C17.3678 22.9533 17.2542 23.2848 17.5478 23.4173C18.3149 23.7583 19.8776 23.7299 20.5973 23.4363C20.7773 23.3605 20.8246 23.0385 20.6163 23.0006Z"
          fill="white"/>
    <path d="M16.458 23.218C18.0775 23.2559 19.697 23.2085 21.3165 23.2085C21.4017 23.2085 21.4964 23.2085 21.5817 23.2085C21.6195 23.2085 21.6195 23.218 21.6101 23.2085C21.6006 23.1896 21.4964 23.1138 21.487 23.1327C21.4775 23.1517 21.4964 23.2464 21.4964 23.2748C21.5059 23.7199 21.487 24.2029 21.4112 24.6481C21.3165 25.1689 21.0797 25.6614 20.6535 25.9929C20.1421 26.3812 19.4602 26.5138 18.8352 26.4569C18.1059 26.4001 17.3199 26.0592 16.9316 25.4057C16.5149 24.6954 16.5527 23.843 16.5906 23.0475C16.6001 22.8297 16.2592 22.8297 16.2497 23.0475C16.2118 23.8052 16.1929 24.5912 16.4959 25.3015C16.7895 25.9645 17.3578 26.4001 18.0302 26.6369C19.2424 27.0536 20.8429 26.7411 21.4775 25.5288C21.7332 25.0363 21.7995 24.506 21.8279 23.9567C21.8374 23.7105 21.8563 23.4547 21.8468 23.2085C21.8374 23.0665 21.8279 22.9054 21.6669 22.8676C21.4775 22.8202 21.2312 22.8581 21.0418 22.8581C20.6062 22.8581 20.1705 22.8676 19.7349 22.8676C18.6458 22.877 17.5566 22.896 16.4675 22.8676C16.2402 22.877 16.2402 23.218 16.458 23.218Z"
          fill="#5A3A1C"/>
    <path d="M22.9274 21.3685C23.7703 20.9329 24.6037 20.592 25.5129 20.2984C25.7212 20.2321 25.8822 19.9953 25.8065 19.7775C25.7402 19.5691 25.5129 19.4081 25.2856 19.4839C24.329 19.7869 23.3914 20.1752 22.5012 20.6393C22.3023 20.7435 22.2266 21.0371 22.3497 21.2265C22.4728 21.4159 22.719 21.4727 22.9274 21.3685Z"
          fill="#5A3A1C"/>
    <path d="M22.5107 21.493C23.4389 21.796 24.3859 22.0518 25.3235 22.3075C25.5413 22.3643 25.797 22.2317 25.8444 22.0139C25.8918 21.7866 25.7781 21.5498 25.5508 21.493C24.6037 21.2373 23.6662 20.9816 22.738 20.6785C22.5297 20.6122 22.2645 20.7543 22.2171 20.9721C22.1603 21.1994 22.2834 21.4172 22.5107 21.493Z"
          fill="#5A3A1C"/>
</svg>
