<svg width="35" height="42" viewBox="0 0 35 42" fill="none" xmlns="http://www.w3.org/2000/svg">
    <path d="M11.2124 40.2964L12.4052 40.0722C11.4276 36.5297 11.9837 31.4894 12.0106 31.2652C12.0375 31.032 12.2438 30.8706 12.477 30.8975C12.7102 30.9244 12.8716 31.1306 12.8447 31.3638C12.8357 31.4176 12.2258 36.9332 13.3559 40.2964C13.3738 40.3413 13.3917 40.3861 13.4097 40.4399C13.4097 40.4489 13.4097 40.4578 13.4097 40.4668C13.4366 40.5744 13.4097 40.691 13.3559 40.7807C13.2841 40.9242 13.1496 41.0408 12.9702 41.0677L11.4097 41.3637C11.1138 41.4175 10.8268 41.2291 10.7729 40.9332C10.7281 40.6372 10.9165 40.3502 11.2124 40.2964Z"
          fill="#9E5429"/>
    <path d="M19.9394 40.0544L18.639 39.9558L18.8363 32.0187C18.8453 31.7855 18.6569 31.5882 18.4237 31.5882C18.1905 31.5792 17.9933 31.7676 17.9933 32.0007L17.778 40.4132C17.778 40.4221 17.778 40.4311 17.769 40.4401C17.769 40.467 17.769 40.4939 17.769 40.5208V40.5298V40.5387C17.769 40.5477 17.769 40.5567 17.769 40.5567C17.778 40.6733 17.8318 40.7809 17.9125 40.8526C18.0022 40.9513 18.1278 41.0141 18.2623 41.023L19.8408 41.1396C20.1367 41.1576 20.3968 40.9333 20.4237 40.6374C20.4596 40.3325 20.2354 40.0724 19.9394 40.0544Z"
          fill="#9E5429"/>
    <path d="M25.4729 25.5907C25.4729 32.0301 20.6658 37.2587 14.7287 37.2587C8.79158 37.2587 3.9845 32.0391 3.9845 25.5907C3.9845 12.7031 12.9978 1.42969 14.7287 1.42969C16.4506 1.43866 25.4729 14.3084 25.4729 25.5907Z"
          fill="#CF7F40"/>
    <path d="M14.7285 36.1447C10.5223 36.1447 6.84526 33.777 4.89014 30.2793C6.5493 34.3869 10.334 37.2568 14.7285 37.2568C19.1231 37.2568 22.9078 34.3869 24.567 30.2793C22.6118 33.786 18.9348 36.1447 14.7285 36.1447Z"
          fill="#BA6522"/>
    <path d="M22.3352 28.1895C22.2365 28.6827 22.1648 29.1401 22.0751 29.5437C21.9854 29.9473 21.8778 30.3239 21.7792 30.6558C21.5639 31.3194 21.4025 31.8217 21.4384 31.8037C21.9675 31.4629 22.4518 30.8621 22.6311 30.1356C22.7208 29.7769 22.7298 29.4092 22.676 29.0684C22.6132 28.7276 22.4877 28.4316 22.3352 28.1895Z"
          fill="#BA6522"/>
    <path d="M18.6753 8.09113C18.1461 7.16738 17.6259 6.66514 17.6439 6.70102C17.8412 7.56199 18.1999 8.45884 18.4959 9.32878C18.7919 10.1987 19.0519 11.0956 19.3838 11.813C19.4555 11.1314 19.4376 10.4319 19.312 9.78617C19.1865 9.14044 18.9443 8.54852 18.6753 8.09113Z"
          fill="#BA6522"/>
    <path d="M7.53714 16.325C7.25912 16.6299 7.01697 17.0066 6.8376 17.4371C6.65823 17.8586 6.55061 18.3339 6.53268 18.8093C6.51474 19.2846 6.57752 19.751 6.70308 20.1725C6.82864 20.594 7.01697 20.9617 7.23222 21.2666C7.20531 20.6209 7.17839 20.0021 7.18736 19.4371C7.19633 18.8721 7.23222 18.3429 7.295 17.8766C7.41159 16.9618 7.57302 16.2981 7.53714 16.325Z"
          fill="#BA6522"/>
    <path d="M8.92683 32.5045C8.6219 31.9754 8.36184 31.4642 8.16453 31.0068C7.76095 30.092 7.54569 29.4104 7.52775 29.4552C7.38426 30.3162 7.53674 31.3655 8.02103 32.2534C8.48739 33.1502 9.25867 33.8229 9.96718 34.1457C9.77884 33.8587 9.5905 33.5807 9.41114 33.3027C9.24073 33.0426 9.07929 32.7646 8.92683 32.5045Z"
          fill="#BA6522"/>
    <path d="M5.85093 25.7955C5.82402 25.3202 5.79712 24.9345 5.77022 24.9435C5.40251 25.2484 5.1783 25.7686 5.18727 26.2977C5.19624 26.5578 5.25901 26.8179 5.3756 27.0421C5.49219 27.2663 5.6626 27.4457 5.85991 27.5444C5.84197 27.1677 5.85989 26.8717 5.86886 26.5847C5.86886 26.3067 5.86887 26.0377 5.85093 25.7955Z"
          fill="#BA6522"/>
    <path d="M18.5776 32.1456C18.461 32.3788 18.3534 32.603 18.2457 32.8092C18.0215 33.2308 17.7883 33.6074 17.5641 33.9393C17.1247 34.6029 16.8018 35.0872 16.8377 35.0783C17.5013 34.8182 18.165 34.298 18.5776 33.5805C18.7838 33.2218 18.9184 32.8361 18.9632 32.4595C19.017 32.0828 18.9811 31.7151 18.9004 31.4102C18.8018 31.6702 18.6852 31.9124 18.5776 32.1456Z"
          fill="#BA6522"/>
    <path d="M20.0294 26.2605C19.9577 26.969 20.0115 27.4712 20.0294 27.4443C20.4061 26.9421 20.6752 26.3143 20.7917 25.6506C20.9083 24.9869 20.8635 24.3143 20.6662 23.7852C20.2716 24.673 20.1012 25.5519 20.0294 26.2605Z"
          fill="#BA6522"/>
    <path d="M9.27745 24.2168C9.13395 24.6832 9.10705 25.1764 9.16983 25.6248C9.22364 26.0733 9.34918 26.4769 9.49268 26.8177C9.77967 27.4813 10.1025 27.8759 10.1115 27.849C10.1563 27.2212 10.0667 26.5576 9.9142 25.9387C9.75277 25.302 9.53753 24.7101 9.27745 24.2168Z"
          fill="#BA6522"/>
    <path d="M23.322 20.2355C23.4117 19.6167 23.3489 18.9351 23.1336 18.2894C22.9184 17.6526 22.5507 17.0786 22.1292 16.7109C22.2009 17.6885 22.47 18.5315 22.748 19.1952C23.026 19.8499 23.322 20.2714 23.322 20.2355Z"
          fill="#BA6522"/>
    <path d="M16.8638 21.4637C17.097 20.8898 17.2047 20.2082 17.1508 19.5355C17.097 18.8629 16.8818 18.2172 16.5589 17.7598C16.3885 18.7284 16.4513 19.6073 16.5589 20.3158C16.6755 21.0153 16.8549 21.4996 16.8638 21.4637Z"
          fill="#BA6522"/>
    <path d="M14.4069 23.8867C14.084 24.8105 14.1109 25.7611 14.2813 26.4786C14.4427 27.1871 14.7118 27.6266 14.7118 27.5997C14.8553 26.9898 14.8911 26.3351 14.8373 25.6804C14.7835 25.0347 14.649 24.3979 14.4069 23.8867Z"
          fill="#BA6522"/>
    <path d="M23.9489 23.956C23.7785 23.2744 23.4108 22.7005 23.0162 22.2969C23.0252 22.7901 23.1059 23.2565 23.1956 23.678C23.2853 24.0995 23.3839 24.4762 23.4557 24.808C23.6081 25.4717 23.7158 25.9829 23.7337 25.947C23.8772 25.669 23.9758 25.3462 24.0117 24.9964C24.0566 24.6556 24.0297 24.2879 23.9489 23.956Z"
          fill="#BA6522"/>
    <path d="M10.7749 19.1769C10.6672 19.715 10.6672 20.2531 10.748 20.6926C10.8197 21.141 10.9543 21.4908 11.0708 21.7239C11.1785 21.9571 11.2682 22.0737 11.2682 22.0558C11.304 21.3204 11.3399 20.5491 11.3758 19.7957C11.4206 19.0424 11.4654 18.2801 11.4206 17.6074C11.0977 18.0917 10.8825 18.6388 10.7749 19.1769Z"
          fill="#BA6522"/>
    <path d="M10.5236 8.64936C10.0573 9.15159 9.64474 9.80629 9.43846 10.5417C9.23219 11.2861 9.26806 12.0394 9.41156 12.6314C9.65371 12.1471 9.81514 11.6538 9.94967 11.1964C10.0842 10.748 10.2097 10.3175 10.3084 9.94082C10.4967 9.18747 10.5505 8.62245 10.5236 8.64936Z"
          fill="#BA6522"/>
    <path d="M14.7744 11.2388C14.7923 10.8263 14.7475 10.4406 14.6668 10.1088C14.5143 9.45411 14.2632 9.05053 14.2542 9.07744C14.0928 9.64245 14.0569 10.2523 14.0928 10.8442C14.1376 11.4361 14.2722 12.0012 14.4336 12.4944C14.6668 12.0998 14.7565 11.6514 14.7744 11.2388Z"
          fill="#BA6522"/>
    <path d="M18.631 13.9934C18.5054 13.832 18.4158 13.7692 18.4158 13.7782C18.4247 14.3611 18.4785 14.953 18.622 15.527C18.7655 16.101 18.9808 16.6481 19.2319 17.1055C19.5189 16.2176 19.3126 15.3208 19.0525 14.7019C18.918 14.397 18.7566 14.1459 18.631 13.9934Z"
          fill="#BA6522"/>
    <path d="M12.3796 33.8583C12.1195 33.4188 11.8415 32.9704 11.5276 32.5938C11.4469 33.0153 11.4917 33.4368 11.6263 33.8135C11.7608 34.1901 11.985 34.504 12.2272 34.7282C12.4693 34.9525 12.7294 35.078 12.9177 35.1318C13.1061 35.1856 13.2137 35.1677 13.2047 35.1587C13.0254 34.9525 12.8998 34.7372 12.7653 34.522C12.6307 34.2978 12.5052 34.0825 12.3796 33.8583Z"
          fill="#BA6522"/>
    <path d="M13.3839 6.32528C13.8502 5.84995 13.9848 5.30287 14.0027 4.86342C14.0206 4.42396 13.922 4.09213 13.9041 4.11007C13.2673 4.66611 13.0879 5.61677 13.3839 6.32528Z"
          fill="#BA6522"/>
    <path d="M16.6762 31.0118C17.2502 32.0431 16.443 34.1148 14.8197 34.1148C13.1965 34.1148 12.4879 31.8907 12.9633 31.0118C13.2323 30.5095 13.8691 30.375 14.8197 30.375C15.7704 30.375 16.3982 30.5006 16.6762 31.0118Z"
          fill="#231F20"/>
    <path d="M16.2637 31.0478C16.2637 31.263 15.5642 31.2182 14.775 31.2182C13.9857 31.2182 13.3938 31.263 13.3938 31.0478C13.3938 30.8325 14.0395 30.6621 14.8288 30.6621C15.627 30.6621 16.2637 30.8325 16.2637 31.0478Z"
          fill="white"/>
    <path d="M13.4741 33.0046C13.788 33.4799 14.2454 33.8207 14.8373 33.8207C15.4472 33.8207 15.9405 33.471 16.2633 32.9956C15.214 32.2244 14.1916 32.5472 13.4741 33.0046Z"
          fill="#FB422D"/>
    <path d="M20.8888 31.1359C21.6842 30.9481 22.1767 30.1511 21.9889 29.3557C21.8011 28.5604 21.0041 28.0678 20.2087 28.2556C19.4133 28.4435 18.9208 29.2405 19.1086 30.0358C19.2964 30.8312 20.0934 31.3237 20.8888 31.1359Z"
          fill="white"/>
    <path d="M9.35697 31.1687C10.1637 31.0378 10.7115 30.2777 10.5806 29.4709C10.4497 28.6642 9.68957 28.1164 8.88285 28.2473C8.07612 28.3782 7.52826 29.1384 7.65918 29.9451C7.79011 30.7518 8.55024 31.2997 9.35697 31.1687Z"
          fill="white"/>
    <path d="M20.5612 28.6699C19.9962 28.6699 19.5388 29.1273 19.5388 29.6923C19.5388 30.2573 19.9962 30.7147 20.5612 30.7147C21.1262 30.7147 21.5836 30.2573 21.5836 29.6923C21.5836 29.1273 21.1262 28.6699 20.5612 28.6699ZM20.4267 29.5757C20.2473 29.6923 20.0231 29.6744 19.9245 29.5219C19.8348 29.3784 19.9065 29.1632 20.0859 29.0466C20.2653 28.93 20.4895 28.9479 20.5881 29.1004C20.6778 29.2439 20.6061 29.4591 20.4267 29.5757ZM21.1711 30.3022C21.0993 30.365 21.0007 30.365 20.9558 30.3022C20.911 30.2394 20.9289 30.1497 21.0096 30.0869C21.0903 30.0242 21.1801 30.0242 21.2249 30.0869C21.2697 30.1497 21.2518 30.2484 21.1711 30.3022Z"
          fill="#231F20"/>
    <path d="M9.12566 28.6699C8.56065 28.6699 8.10327 29.1273 8.10327 29.6923C8.10327 30.2573 8.56065 30.7147 9.12566 30.7147C9.69068 30.7147 10.1481 30.2573 10.1481 29.6923C10.1391 29.1273 9.68171 28.6699 9.12566 28.6699ZM8.93733 29.5757C8.75796 29.6923 8.53375 29.6744 8.4351 29.5219C8.34542 29.3784 8.41716 29.1632 8.59653 29.0466C8.7759 28.93 9.0001 28.9479 9.09876 29.1004C9.18844 29.2439 9.1167 29.4591 8.93733 29.5757ZM9.64585 30.3022C9.5741 30.365 9.47543 30.365 9.43059 30.3022C9.38574 30.2394 9.40368 30.1497 9.4844 30.0869C9.55614 30.0242 9.65481 30.0242 9.69966 30.0869C9.7445 30.1497 9.7176 30.2484 9.64585 30.3022Z"
          fill="#231F20"/>
    <path d="M25.5987 16.1892C24.2803 10.3777 20.971 5.26563 16.9441 0.9518C16.8545 0.862115 16.7648 0.763462 16.6841 0.673777C16.4509 0.395755 16.1818 0.019079 15.8948 0.00114203C15.6796 -0.0167949 15.4464 0.180512 15.3029 0.315039C14.0473 1.40022 12.8545 2.56612 11.7335 3.7948C10.6214 5.01452 9.57206 6.29701 8.62141 7.65124C7.67075 8.99651 6.80977 10.4135 6.06539 11.8844C5.32997 13.3462 4.70218 14.8619 4.21789 16.4224C3.73359 17.9739 3.3928 19.5703 3.2224 21.1847C3.052 22.8169 3.05201 24.4671 3.23138 26.0994C3.31209 26.6016 3.41074 27.0949 3.5363 27.5881C4.42418 31.1217 6.48692 34.2338 9.83216 35.8481C13.6796 37.7046 18.2715 37.1396 21.5539 34.4042C23.2221 33.0141 24.388 31.1307 25.1503 29.0679C25.527 28.0366 25.805 26.9604 25.9933 25.8841C26.361 23.7496 26.4238 21.5972 26.1458 19.4358C26.0292 18.3417 25.8409 17.2565 25.5987 16.1892Z"
          fill="#CF7F40"/>
    <path d="M26.1194 19.4375C25.958 18.2178 25.7338 16.9981 25.4289 15.7963C25.3302 15.3927 25.2226 14.9981 25.106 14.6035C24.6755 12.9443 24.0657 11.3479 23.3213 9.83227C23.1329 9.45559 22.9356 9.07892 22.7383 8.70224C22.6128 8.45112 22.4782 8.20898 22.3437 7.96683C21.3213 6.1552 20.0209 4.5319 18.6487 2.95345C18.559 2.84583 18.4693 2.74718 18.3707 2.63956C17.6083 1.74271 16.9536 0.765149 15.985 0.0566406C16.5052 0.917613 16.9895 1.81446 17.3752 2.76512C17.438 2.89068 17.5007 3.01623 17.5635 3.13282C18.7832 5.48256 19.994 7.8323 21.0881 10.2538C21.2406 10.6036 21.3841 10.9623 21.5186 11.321C22.2002 13.1147 22.7204 14.9622 22.9805 16.8905C23.0612 17.3209 23.124 17.7514 23.1778 18.1819C23.2406 18.7021 23.2854 19.2133 23.3123 19.7335C23.3751 20.6751 23.384 21.6617 23.3302 22.6661C23.3033 23.1684 23.2585 23.6706 23.1957 24.1728C23.097 25.2132 22.8818 26.2446 22.541 27.2401C22.3706 27.7333 22.1733 28.2176 21.9401 28.684C21.7069 29.2042 21.4199 29.6885 21.0971 30.1369C18.4693 33.8498 13.0165 35.2668 9.01656 33.1682C8.53226 32.9171 8.09281 32.6211 7.68026 32.2983C7.47399 32.1368 7.28566 31.9664 7.09732 31.7871C4.6848 29.4015 3.67136 26.0652 3.31262 22.7469C3.27675 22.433 3.24985 22.128 3.23191 21.8231C3.19604 22.1908 3.16911 22.5675 3.15117 22.9442C2.90005 25.9038 3.60858 28.9441 5.24084 31.4283C5.42918 31.7333 5.63545 32.0203 5.85069 32.3072C8.20043 35.4283 11.8685 37.4462 16.003 36.8453C16.4694 36.7915 16.9357 36.7108 17.3931 36.5942C17.8505 36.4776 18.2989 36.3341 18.7384 36.1457C19.1509 35.9843 19.5635 35.796 19.9581 35.5807C20.3527 35.3655 20.7383 35.1233 21.115 34.8543C23.384 33.1682 24.8011 30.7378 25.5006 28.0921C25.6172 27.6795 25.7248 27.258 25.8145 26.8275C25.9939 25.9845 26.1194 25.1235 26.2091 24.2805C26.2809 23.6168 26.3167 22.9352 26.3167 22.2626C26.3167 21.5899 26.2898 20.9083 26.2181 20.2447C26.1912 19.9756 26.1643 19.7066 26.1194 19.4375Z"
          fill="#CC7133"/>
    <g opacity="0.33">
        <path opacity="0.33"
              d="M7.76865 14.3085C7.93008 13.878 8.10048 13.4565 8.27088 13.026C8.43232 12.6045 8.54891 12.156 8.74621 11.7525C8.78209 11.6897 8.90763 11.4296 8.72826 11.3758C8.6027 11.3399 8.55787 11.5193 8.51302 11.5821C8.24397 12.0305 8.07357 12.5148 7.8942 13.0081C7.62514 13.7255 7.38299 14.4609 7.22156 15.2143C7.21259 15.2412 7.2126 15.2591 7.20363 15.286C7.19467 15.3757 7.14983 15.5282 7.32023 15.5192C7.43682 15.5103 7.4099 15.4026 7.44577 15.3219C7.45474 15.304 7.45473 15.286 7.4637 15.2681C7.53545 15.0618 7.58031 14.8466 7.65206 14.6403C7.67896 14.5327 7.72381 14.4161 7.76865 14.3085Z"
              fill="#511900" stroke="#511900" stroke-width="0.607945" stroke-miterlimit="10"/>
    </g>
    <g opacity="0.33">
        <path opacity="0.33"
              d="M10.9351 17.1394C11.0427 16.5564 11.1862 15.9825 11.3386 15.4085C11.4911 14.8435 11.6167 14.2605 11.8409 13.7224C11.8767 13.6327 12.0292 13.3009 11.8409 13.2561C11.7153 13.2291 11.6526 13.4623 11.6077 13.543C11.3028 14.1439 11.1144 14.8076 10.953 15.4623C10.7109 16.4399 10.5404 17.4443 10.5494 18.4488C10.5494 18.4847 10.5494 18.5116 10.5494 18.5475C10.5584 18.664 10.5494 18.8703 10.7198 18.7986C10.8274 18.7537 10.7826 18.6192 10.7916 18.5116C10.7916 18.4847 10.7916 18.4667 10.8005 18.4398C10.8274 18.1618 10.8274 17.8748 10.8633 17.5968C10.8723 17.525 10.8813 17.4443 10.8992 17.3726L10.9351 17.1394Z"
              fill="#511900" stroke="#511900" stroke-width="0.607945" stroke-miterlimit="10"/>
    </g>
    <g opacity="0.33">
        <path opacity="0.33"
              d="M10.6923 32.6447C10.6475 32.6268 10.6026 32.6089 10.5578 32.582L10.4233 32.5192L10.2977 32.4564C10.2529 32.4385 10.208 32.4116 10.1722 32.3936L10.0466 32.3219C10.0017 32.295 9.96589 32.277 9.92105 32.2501C9.84033 32.2053 9.75961 32.1515 9.66993 32.0977C9.62509 32.0708 9.5892 32.0439 9.54436 32.0259C9.49952 31.999 9.46366 31.9811 9.41881 31.9542L9.29324 31.8735C9.2484 31.8465 9.21252 31.8196 9.17665 31.7927L9.06008 31.712C9.02421 31.6851 8.98833 31.6492 8.94349 31.6223C8.87174 31.5596 8.79998 31.4968 8.7372 31.425C8.71927 31.4071 8.66547 31.3443 8.61166 31.3084C8.54888 31.2726 8.48608 31.2636 8.4233 31.3353C8.34258 31.434 8.46814 31.5327 8.50401 31.5865C8.63854 31.7658 8.80895 31.9362 8.98832 32.0708C9.16769 32.2143 9.36501 32.3398 9.56231 32.4474C10.1453 32.7882 10.791 33.0394 11.4636 33.1201C11.4816 33.1201 11.5085 33.1201 11.5264 33.129C11.6071 33.129 11.7416 33.1559 11.7237 32.9855C11.7058 32.869 11.6161 32.9138 11.5443 32.8869C11.5264 32.8869 11.5174 32.8779 11.4995 32.8779C11.3201 32.8331 11.1318 32.8062 10.9614 32.7434C10.9165 32.7255 10.8627 32.7075 10.8179 32.6896L10.6923 32.6447Z"
              fill="#511900" stroke="#511900" stroke-width="0.607945" stroke-miterlimit="10"/>
    </g>
    <g opacity="0.33">
        <path opacity="0.33"
              d="M24.3429 15.5439C24.2891 15.2389 24.2084 14.943 24.1187 14.647C24.02 14.36 23.8586 14.1 23.7779 13.813C23.7689 13.7681 23.7241 13.5798 23.5447 13.6605C23.4281 13.7143 23.4909 13.8219 23.4999 13.8668C23.5447 14.2076 23.6882 14.5215 23.8048 14.8354C23.9662 15.3017 24.1008 15.7771 24.2174 16.2524C24.2174 16.2703 24.2263 16.2793 24.2263 16.2972C24.2442 16.351 24.2532 16.4587 24.4147 16.4048C24.5223 16.369 24.4595 16.3062 24.4685 16.2434C24.4685 16.2344 24.4685 16.2165 24.4685 16.2075C24.4595 16.0551 24.4147 15.9116 24.3878 15.7681C24.3698 15.6963 24.3608 15.6246 24.3429 15.5439Z"
              fill="#511900" stroke="#511900" stroke-width="0.607945" stroke-miterlimit="10"/>
    </g>
    <g opacity="0.33">
        <path opacity="0.33"
              d="M24.6212 24.7707C24.6392 24.7169 24.6481 24.6631 24.6661 24.6093L24.7019 24.4479L24.7737 24.134L24.8365 23.8111L24.8723 23.6497C24.8813 23.5959 24.8903 23.5421 24.8992 23.4883L24.9531 23.1654C24.971 23.0578 24.98 22.9501 24.9979 22.8425C25.0338 22.6273 25.0517 22.412 25.0696 22.1968C25.0786 22.0892 25.0876 21.9816 25.0965 21.8739C25.1055 21.7663 25.1055 21.6587 25.1145 21.5511C25.1145 21.4434 25.1145 21.3358 25.1235 21.2282V21.0668V20.9053C25.1235 20.7977 25.1235 20.6901 25.1235 20.5825C25.1235 20.4748 25.1235 20.3672 25.1145 20.2596C25.1145 20.0444 25.1055 19.8291 25.1055 19.6139C25.1055 19.5421 25.1055 19.3717 25.0786 19.2282C25.0517 19.0847 25.0069 18.9592 24.9082 18.9861C24.7827 19.022 24.8185 19.3628 24.8185 19.4973C24.8096 19.6139 24.8096 19.7394 24.8006 19.856L24.7916 20.0354L24.7827 20.2148L24.7737 20.5735C24.7647 20.6901 24.7647 20.8156 24.7647 20.9322C24.7468 21.4076 24.7288 21.8919 24.675 22.3672C24.5405 23.7842 24.2356 25.1833 23.7872 26.5375C23.7692 26.5824 23.7603 26.6272 23.7423 26.6721C23.6975 26.8335 23.5809 27.1115 23.7782 27.0667C23.9037 27.0398 23.9217 26.8425 23.9934 26.69C24.0024 26.6541 24.0203 26.6272 24.0293 26.5913C24.1818 26.2057 24.2894 25.8021 24.406 25.3985C24.4329 25.2909 24.4688 25.1833 24.5046 25.0757L24.6212 24.7707Z"
              fill="#511900" stroke="#511900" stroke-width="0.607945" stroke-miterlimit="10"/>
    </g>
    <g opacity="0.33">
        <path opacity="0.33"
              d="M23.0871 18.6454C23.0691 18.2328 23.0332 17.8203 22.9974 17.4078C22.9794 17.2015 22.9525 16.9952 22.9346 16.7889C22.9166 16.5827 22.8897 16.3764 22.8539 16.1701C22.7911 15.7665 22.7104 15.354 22.6117 14.9594C22.5669 14.7621 22.5131 14.5558 22.4682 14.3585C22.4413 14.2598 22.4234 14.1612 22.4054 14.0625C22.3785 13.9639 22.3606 13.8652 22.3337 13.7666C22.3068 13.641 22.1992 13.1298 22.0288 13.2195C21.9122 13.2823 22.0108 13.5872 22.0377 13.7127C22.1184 14.1612 22.1902 14.6186 22.2889 15.067L22.3606 15.4078C22.3785 15.5244 22.4055 15.632 22.4234 15.7486C22.4682 15.9728 22.5041 16.197 22.531 16.4302C22.5579 16.6006 22.5759 16.771 22.5938 16.9414L22.6566 17.4526C22.6924 17.7934 22.7283 18.1342 22.7642 18.475C22.827 19.1566 22.8718 19.8382 22.9077 20.5198C22.9077 20.5647 22.9077 20.6095 22.9166 20.6543C22.9346 20.8158 22.9256 21.1028 23.0871 20.9951C23.1947 20.9234 23.1409 20.744 23.1588 20.5826C23.1588 20.5467 23.1588 20.5198 23.1588 20.4839C23.1678 20.0893 23.1319 19.6947 23.114 19.3001C23.105 19.0669 23.096 18.8606 23.0871 18.6454Z"
              fill="#511900" stroke="#511900" stroke-width="0.607945" stroke-miterlimit="10"/>
    </g>
    <g opacity="0.33">
        <path opacity="0.33"
              d="M18.863 14.1257C18.8451 13.8836 18.8271 13.6504 18.8092 13.4082L18.7285 12.6997L18.6836 12.341C18.6657 12.2244 18.6567 12.1078 18.6388 11.9822C18.6209 11.8657 18.6029 11.7491 18.585 11.6235C18.5671 11.5069 18.5401 11.3903 18.5222 11.2737C18.3428 10.35 18.029 9.44417 17.8047 8.53836C17.7689 8.39486 17.6343 7.82088 17.4639 7.91953C17.3473 7.98231 17.4729 8.34105 17.4998 8.48455C17.715 9.52489 18.02 10.5383 18.2173 11.5787C18.2532 11.767 18.289 11.9643 18.3159 12.1527C18.3428 12.35 18.3697 12.5383 18.3966 12.7356C18.4505 13.1212 18.5132 13.5159 18.5491 13.9015C18.6298 14.6818 18.6837 15.462 18.7016 16.2512C18.7016 16.3051 18.7016 16.3499 18.7016 16.4037C18.7106 16.5831 18.7016 16.9149 18.863 16.7983C18.9706 16.7176 18.9258 16.5113 18.9437 16.332C18.9437 16.2961 18.9437 16.2602 18.9437 16.2154C18.9617 15.758 18.9258 15.3006 18.9078 14.8522C18.8899 14.619 18.881 14.3679 18.863 14.1257Z"
              fill="#511900" stroke="#511900" stroke-width="0.607945" stroke-miterlimit="10"/>
    </g>
    <g opacity="0.33">
        <path opacity="0.33"
              d="M6.22685 29.0226C6.03852 28.637 5.86811 28.2514 5.71565 27.8478C5.56318 27.4621 5.36588 27.0675 5.2762 26.655C5.25826 26.5922 5.2134 26.3231 5.03403 26.3949C4.90847 26.4397 4.98023 26.6012 4.9892 26.6729C5.05198 27.1662 5.23134 27.6325 5.42865 28.0809C5.71564 28.7536 6.06542 29.4083 6.53178 29.9733C6.54972 29.9912 6.55867 30.0092 6.57661 30.0271C6.63939 30.0899 6.72909 30.2154 6.81878 30.072C6.88156 29.9823 6.79186 29.9374 6.74701 29.8657C6.73805 29.8477 6.72908 29.8388 6.72011 29.8208C6.61249 29.6504 6.47796 29.489 6.3793 29.3096C6.3524 29.2648 6.3255 29.211 6.29859 29.1661L6.22685 29.0226Z"
              fill="#511900" stroke="#511900" stroke-width="0.607945" stroke-miterlimit="10"/>
    </g>
    <g opacity="0.33">
        <path opacity="0.33"
              d="M17.6974 35.1121C17.4283 35.2108 17.1503 35.3005 16.8723 35.3722L16.666 35.426L16.5584 35.4529L16.4507 35.4709L16.2445 35.5157C16.1727 35.5336 16.101 35.5426 16.0292 35.5516C15.7512 35.6054 15.4642 35.6323 15.1772 35.6592L14.962 35.6682L14.8544 35.6771H14.7467L14.5315 35.6861C14.4597 35.6861 14.388 35.6861 14.3163 35.6861C14.1728 35.6861 14.0382 35.6771 13.8947 35.6682C13.823 35.6682 13.7512 35.6592 13.6795 35.6502C13.6077 35.6413 13.536 35.6413 13.4642 35.6323L13.249 35.6054L13.1414 35.5964L13.0338 35.5785L12.8275 35.5426C12.7557 35.5336 12.6929 35.5157 12.6212 35.4978C12.4777 35.4709 12.3432 35.435 12.2087 35.3991C12.1369 35.3812 12.0741 35.3543 12.0024 35.3363C11.9307 35.3184 11.8679 35.2915 11.7961 35.2735L11.5988 35.2018L11.5001 35.1659L11.4015 35.1211L11.2042 35.0314C11.1414 35.0045 11.0786 34.9686 11.0159 34.9327C10.9979 34.9238 10.971 34.9058 10.9351 34.8879C10.9172 34.8789 10.8993 34.87 10.8813 34.861C10.8634 34.852 10.8454 34.8431 10.8275 34.8251C10.7468 34.7803 10.6571 34.7354 10.5674 34.6906C10.397 34.6009 10.2356 34.5471 10.2087 34.6458C10.1908 34.7085 10.2805 34.7982 10.406 34.8879C10.424 34.8969 10.4329 34.9058 10.4508 34.9238C10.4688 34.9327 10.4867 34.9417 10.4957 34.9507C10.5316 34.9686 10.5585 34.9866 10.5943 35.0045C10.6571 35.0404 10.7109 35.0762 10.7468 35.0942C10.8185 35.139 10.8903 35.1749 10.9621 35.2197L11.0697 35.2825L11.1863 35.3363C11.258 35.3722 11.3387 35.4081 11.4105 35.4439L11.6436 35.5426C11.9575 35.6682 12.2804 35.7668 12.6033 35.8386L12.7288 35.8655C12.7737 35.8744 12.8095 35.8834 12.8544 35.8924C12.9351 35.9103 13.0158 35.9193 13.1055 35.9372C13.2759 35.9552 13.4373 35.9821 13.6077 36L13.7333 36.009L13.7961 36.0179H13.8589L14.11 36.0269C14.1907 36.0269 14.2804 36.0269 14.3611 36.0269H14.4867C14.5315 36.0269 14.5674 36.0269 14.6122 36.0269C15.6077 36.009 16.5942 35.8206 17.5269 35.4888C18.4597 35.157 19.3296 34.6637 20.0919 34.0359C20.1368 33.9911 20.1906 33.9552 20.2354 33.9103C20.2803 33.8745 20.3341 33.8296 20.3789 33.7758C20.4238 33.731 20.4776 33.6772 20.5045 33.6323C20.5762 33.5426 20.5942 33.4709 20.4776 33.4619C20.4058 33.453 20.3251 33.5068 20.2534 33.5695C20.2175 33.6054 20.1727 33.6413 20.1278 33.6772C20.083 33.713 20.0471 33.7489 20.0023 33.7848C19.9664 33.8117 19.9305 33.8386 19.8946 33.8655C19.4552 34.1973 18.9978 34.5023 18.5045 34.7534C18.2445 34.8969 17.9754 35.0135 17.6974 35.1121Z"
              fill="#511900" stroke="#511900" stroke-width="0.607945" stroke-miterlimit="10"/>
    </g>
    <path d="M11.5721 8.11844C11.8949 8.18122 12.3523 7.97494 12.6393 7.72383C13.3658 7.08707 14.3702 6.21712 14.3882 5.15885C14.3882 4.95257 14.3344 4.72836 14.1729 4.61177C13.4824 4.10954 12.2985 5.22163 11.9218 5.70592C11.5452 6.19919 11.1685 6.84492 11.1775 7.49065C11.1685 7.89423 11.3389 8.0736 11.5721 8.11844Z"
          fill="#EA8D4E"/>
    <path d="M9.805 10.3958C10.5135 10.6559 11.222 9.32855 10.8633 8.79045C10.4597 8.18956 9.69738 8.66489 9.4911 9.17609C9.33864 9.5438 9.35658 10.2344 9.805 10.3958Z"
          fill="#EA8D4E"/>
    <g opacity="0.33">
        <path opacity="0.33"
              d="M20.0738 31.3929C20.2801 31.2045 20.4684 30.9983 20.6478 30.783L20.7823 30.6216L20.8451 30.5409L20.9078 30.4602L21.0334 30.2987L21.159 30.1283C21.4818 29.6799 21.7688 29.1956 22.0199 28.6934C22.2621 28.2001 22.4594 27.6889 22.6298 27.1598C22.7105 26.8997 22.7912 26.6306 22.863 26.3705C22.9347 26.1105 23.0065 25.8414 23.0693 25.5813C23.0782 25.5365 23.0961 25.4647 23.1141 25.375C23.132 25.2854 23.1499 25.1867 23.1589 25.097C23.1769 24.9087 23.1589 24.7472 23.0603 24.7562C22.9885 24.7652 22.9437 24.8728 22.9168 25.0073C22.8809 25.1329 22.854 25.2854 22.8361 25.3661C22.6746 25.949 22.5042 26.532 22.2979 27.106C22.2531 27.2494 22.1903 27.3929 22.1455 27.5364C22.0917 27.6799 22.0379 27.8145 21.9751 27.958C21.8585 28.236 21.724 28.514 21.5894 28.7831C21.1769 29.5812 20.6657 30.3256 20.0558 30.9893C19.446 31.644 18.7464 32.218 17.9572 32.6574C17.9034 32.6843 17.8586 32.7112 17.8048 32.7381C17.7599 32.7651 17.7061 32.792 17.6523 32.8278C17.5985 32.8547 17.5447 32.8906 17.4998 32.9175C17.4101 32.9803 17.3743 33.0431 17.4729 33.0879C17.5357 33.1148 17.6254 33.0969 17.7151 33.061C17.742 33.052 17.7599 33.0431 17.7868 33.0251C17.8137 33.0162 17.8317 32.9982 17.8586 32.9893C17.9034 32.9624 17.9572 32.9355 18.002 32.9175C18.0379 32.8996 18.0828 32.8816 18.1186 32.8637C18.594 32.6216 19.0245 32.3077 19.446 31.9758C19.6523 31.7875 19.8675 31.5992 20.0738 31.3929Z"
              fill="#511900" stroke="#511900" stroke-width="0.607945" stroke-miterlimit="10"/>
    </g>
    <g opacity="0.33">
        <path opacity="0.33"
              d="M6.60416 23.6594C6.58622 23.489 6.5683 23.3186 6.55933 23.1482C6.55036 22.9778 6.53241 22.8074 6.52345 22.637L6.51447 22.1258C6.5055 21.9554 6.5055 21.785 6.51447 21.6146C6.52344 20.942 6.53241 20.2514 6.65797 19.5877C6.6759 19.4801 6.76559 19.0586 6.57725 19.0586C6.44273 19.0586 6.42481 19.3366 6.3979 19.4442C6.20956 20.2066 6.14677 20.9958 6.15574 21.785C6.15574 21.8568 6.15574 21.9285 6.15574 22.0003L6.16471 22.2155L6.18264 22.6549C6.20058 22.9509 6.23646 23.2379 6.27233 23.5249C6.35305 24.0989 6.46068 24.6729 6.59521 25.2379C6.60418 25.2737 6.61314 25.3096 6.62211 25.3455C6.65799 25.48 6.7118 25.7132 6.84632 25.5966C6.93601 25.5159 6.85529 25.3814 6.84632 25.2468C6.84632 25.2199 6.83735 25.193 6.83735 25.1661C6.78354 24.8433 6.70282 24.5204 6.66694 24.1886C6.64901 24.0182 6.6221 23.8388 6.60416 23.6594Z"
              fill="#511900" stroke="#511900" stroke-width="0.607945" stroke-miterlimit="10"/>
    </g>
    <g opacity="0.33">
        <path opacity="0.33"
              d="M4.76459 23.8928C4.75562 23.6058 4.74665 23.3278 4.72871 23.0408C4.71077 22.7628 4.63904 22.4848 4.65697 22.1978C4.65697 22.1529 4.67491 21.9736 4.48657 21.9915C4.36101 22.0005 4.38792 22.1171 4.37895 22.1619C4.30721 22.4848 4.35205 22.8076 4.37895 23.1305C4.41483 23.6058 4.46863 24.0901 4.59419 24.5565C4.59419 24.5744 4.60317 24.5834 4.60317 24.6013C4.6211 24.6551 4.63903 24.7538 4.7915 24.691C4.89912 24.6551 4.83633 24.6013 4.83633 24.5385C4.83633 24.5296 4.83633 24.5206 4.83633 24.5027C4.82736 24.3681 4.78251 24.2336 4.77354 24.0991C4.76457 24.0363 4.76459 23.9646 4.76459 23.8928Z"
              fill="#511900" stroke="#511900" stroke-width="0.607945" stroke-miterlimit="10"/>
    </g>
    <path d="M7.21287 25.5336C6.99762 23.7399 7.04248 21.9462 7.11423 20.1525C7.06938 20.009 6.98868 19.8835 6.81828 19.8027C6.77344 19.9642 6.74651 20.1166 6.73754 20.2781C6.71063 21.9552 6.6389 23.6412 6.9528 25.3004C7.03352 25.5336 7.13215 25.5784 7.21287 25.5336Z"
          fill="#E28C52"/>
    <path d="M5.25709 24.8702C5.37368 24.386 5.29298 23.9106 5.27505 23.4174C5.26608 23.3456 5.25709 23.2739 5.25709 23.1931C5.25709 22.7985 5.33782 22.3322 5.06876 22.3501C4.79971 22.368 4.84455 22.8703 4.87146 23.2828C4.88042 23.3635 4.88043 23.4443 4.88043 23.516C4.93424 24.0003 4.93424 24.4667 5.15845 24.8882C5.19433 24.8972 5.22122 24.8882 5.25709 24.8702Z"
          fill="#E28C52"/>
    <path d="M22.6751 21.0581C23.0518 19.0132 22.4958 17.0043 22.1191 15.0312C22.0653 15.3182 22.0115 15.5604 22.0294 15.8563C22.1011 17.5514 22.8276 19.1478 22.5316 20.8608C22.5406 21.076 22.6034 21.1119 22.6751 21.0581Z"
          fill="#E28C52"/>
    <path d="M17.5002 32.6303C17.7155 32.5675 17.9217 32.4868 18.119 32.3971C18.2805 32.3164 18.4419 32.2357 18.5944 32.1371C18.7468 32.0474 18.8993 31.9397 19.0338 31.8411C19.7693 31.312 20.3881 30.6573 20.8814 29.9129C20.9352 29.8322 20.989 29.7425 21.0428 29.6618C21.0876 29.581 21.1414 29.5003 21.1863 29.4286C21.2311 29.3479 21.2759 29.2671 21.3118 29.1864C21.3477 29.1057 21.3836 29.016 21.4195 28.9353C21.4553 28.8546 21.4912 28.7649 21.536 28.6842C21.7333 28.2268 21.9665 27.7874 22.1459 27.321C22.1728 27.2672 22.1907 27.2044 22.2087 27.1506C22.2535 27.025 22.406 26.8188 22.2984 26.7739C22.1638 26.6932 22.0741 26.9353 22.0383 27.0699C22.0293 27.0878 22.0203 27.1057 22.0114 27.1327C21.7961 27.6169 21.6167 28.1012 21.3656 28.5676C21.3298 28.6483 21.2849 28.729 21.2401 28.8098C21.1952 28.8905 21.1504 28.9712 21.1056 29.0519C21.0607 29.1326 21.0159 29.2044 20.971 29.2851C20.9262 29.3658 20.8724 29.4375 20.8275 29.5093C20.7737 29.59 20.7199 29.6797 20.6661 29.7604C20.1818 30.4958 19.6347 31.1774 18.9531 31.7335C18.8186 31.8411 18.6751 31.9487 18.5316 32.0384C18.3881 32.1371 18.2267 32.2267 18.0652 32.2985C17.8769 32.3792 17.6886 32.442 17.4823 32.4868C17.3657 32.6214 17.4016 32.6572 17.5002 32.6303Z"
          fill="#E28C52"/>
    <path d="M17.4104 24.1103C17.231 23.9489 16.8095 24.0655 16.6032 24.0745C16.101 24.0924 15.5987 24.1103 15.1055 24.1193C14.2176 24.1373 13.2759 24.2628 12.397 24.1462C12.2445 24.1283 12.1459 24.2269 12.11 24.3525C12.0921 24.3704 12.0741 24.3884 12.0562 24.4063C12.0024 24.6395 11.9844 24.8816 11.9934 25.1238C12.0383 25.2493 12.0293 25.4466 12.0293 25.626C12.0472 25.7695 12.0651 25.922 12.0921 26.0655C12.1548 26.2717 12.2355 26.4691 12.3432 26.6484C12.6122 27.1058 13.0517 27.4915 13.5539 27.6888C14.675 28.1282 16.5584 27.9399 17.2848 26.8816C17.6525 26.3435 17.8409 24.487 17.4104 24.1103Z"
          fill="#FF5A72"/>
    <path d="M15.3911 26.0086C14.3059 25.9189 13.2476 26.1072 12.2252 26.448C12.2611 26.5198 12.288 26.5826 12.3239 26.6453C12.5929 27.1027 13.0324 27.4884 13.5346 27.6857C14.6557 28.1251 16.539 27.9368 17.2655 26.8785C17.3283 26.7888 17.3911 26.6543 17.4359 26.4929C16.7902 26.2418 16.1086 26.0624 15.3911 26.0086Z"
          fill="#FF929D"/>
    <path d="M16.4944 24.1538C15.9204 24.0461 15.759 24.2255 15.1671 24.2076C14.5124 24.1896 14.1357 24.1986 13.4899 24.1358C13.1402 24.0999 13.0146 24.4497 13.3196 24.5842C14.1088 24.943 15.7231 24.9071 16.4764 24.6022C16.6648 24.5304 16.7096 24.1896 16.4944 24.1538Z"
          fill="white"/>
    <path d="M12.2081 24.3774C13.8852 24.4222 15.5533 24.3684 17.2304 24.3684C17.3201 24.3684 17.4187 24.3684 17.5084 24.3684C17.5533 24.3684 17.5443 24.3774 17.5443 24.3684C17.5353 24.3505 17.4277 24.2698 17.4187 24.2877C17.4098 24.3056 17.4277 24.4043 17.4277 24.4312C17.4367 24.8976 17.4187 25.3908 17.338 25.8482C17.2394 26.3863 16.9972 26.8975 16.5488 27.2383C16.0197 27.6419 15.3112 27.7764 14.6654 27.7226C13.9031 27.6598 13.1049 27.3101 12.7013 26.6374C12.2619 25.902 12.3067 25.0231 12.3426 24.198C12.3516 23.9738 12.0018 23.9738 11.9928 24.198C11.957 24.9783 11.9301 25.7944 12.2529 26.5298C12.5489 27.2114 13.1408 27.6688 13.8314 27.902C15.078 28.3325 16.7371 28.0096 17.3918 26.763C17.6519 26.2608 17.7237 25.7047 17.7506 25.1397C17.7685 24.8796 17.7865 24.6285 17.7685 24.3684C17.7596 24.216 17.7506 24.0545 17.5802 24.0186C17.3829 23.9738 17.1318 24.0097 16.9345 24.0097C16.486 24.0097 16.0376 24.0186 15.5892 24.0186C14.4592 24.0276 13.3381 24.0456 12.2081 24.0186C11.9749 24.0186 11.9749 24.3774 12.2081 24.3774Z"
          fill="#5A3A1C"/>
    <path d="M18.997 22.5369C19.8669 22.0885 20.7279 21.7297 21.6606 21.4338C21.8759 21.362 22.0463 21.1288 21.9656 20.8957C21.8938 20.6804 21.6606 20.51 21.4274 20.5907C20.4409 20.9046 19.4723 21.3082 18.5486 21.7835C18.3423 21.8912 18.2706 22.1961 18.3871 22.3844C18.5306 22.5907 18.7728 22.6535 18.997 22.5369Z"
          fill="#5A3A1C"/>
    <path d="M18.5657 22.6715C19.5253 22.9764 20.5029 23.2455 21.4715 23.5056C21.6957 23.5683 21.9558 23.4338 22.0096 23.2006C22.0634 22.9674 21.9378 22.7253 21.7047 22.6625C20.7271 22.4024 19.7585 22.1334 18.7989 21.8284C18.5836 21.7567 18.3056 21.9092 18.2608 22.1334C18.207 22.3666 18.3325 22.5908 18.5657 22.6715Z"
          fill="#5A3A1C"/>
    <path d="M11.5259 21.6677C10.6022 21.1924 9.64253 20.7888 8.64703 20.4749C8.43179 20.4032 8.15376 20.5556 8.10892 20.7799C8.05511 21.022 8.18069 21.2462 8.41387 21.318C9.35556 21.6229 10.2076 21.9727 11.0775 22.4211C11.2838 22.5287 11.5618 22.4839 11.6784 22.2597C11.786 22.0623 11.7412 21.7754 11.5259 21.6677Z"
          fill="#5A3A1C"/>
    <path d="M11.2752 21.7048C10.3155 22.0097 9.338 22.2788 8.3694 22.5388C8.13622 22.6016 8.0017 22.8527 8.06448 23.077C8.12726 23.3101 8.37838 23.4447 8.60259 23.3819C9.58015 23.1218 10.5487 22.8527 11.5084 22.5478C11.7326 22.4761 11.885 22.2429 11.8133 22.0097C11.7595 21.7945 11.4994 21.633 11.2752 21.7048Z"
          fill="#5A3A1C"/>
    <path d="M3.55388 26.4199C1.59876 28.106 -0.0514334 31.4602 1.82298 32.5454C3.69739 33.6306 5.99331 32.9041 6.72873 34.0252"
          stroke="#9E5429" stroke-width="1.24755" stroke-miterlimit="10" stroke-linecap="round"/>
    <path d="M32.3432 22.9238C32.3432 26.3318 31.7154 28.7623 29.9486 30.0089C29.3836 30.4035 28.9352 29.695 25.7065 27.6951"
          stroke="#9E5429" stroke-width="1.24755" stroke-miterlimit="10" stroke-linecap="round"/>
    <path fill-rule="evenodd" clip-rule="evenodd"
          d="M5.25777 34.3777C5.70619 33.6692 6.43263 33.3194 6.88106 33.5974C7.32051 33.8755 7.31155 34.6826 6.86313 35.3911C6.41471 36.0996 5.68826 36.4494 5.23984 36.1714C4.80038 35.8934 4.80934 35.0862 5.25777 34.3777Z"
          fill="#9E5429"/>
    <path d="M32.7738 22.9672C33.0159 22.8865 33.3209 22.6622 33.581 22.3394C34.0025 21.8282 34.1729 21.2811 33.9576 21.1017C33.7513 20.9313 33.276 21.1735 32.8635 21.6488C32.8724 21.0031 32.6572 20.4739 32.3881 20.465C32.1281 20.456 31.9038 20.9313 31.8769 21.5412C31.5003 21.1197 31.0787 20.8955 30.8814 21.0479C30.6662 21.2183 30.8097 21.7744 31.2133 22.2945C31.4465 22.5995 31.7155 22.8237 31.9397 22.9223C31.9397 22.9582 32.7738 22.9761 32.7738 22.9672Z"
          fill="#9E5429"/>
</svg>
